<?xml version="1.0" encoding="UTF-8"?>
<svg width="86px" height="86px" viewBox="0 0 86 86" version="1.1" xmlns="http://www.w3.org/2000/svg" xmlns:xlink="http://www.w3.org/1999/xlink">
    <!-- Generator: Sketch 64 (93537) - https://sketch.com -->
    <title>help_icon</title>
    <desc>Created with Sketch.</desc>
    <g id="help_icon" stroke="none" stroke-width="1" fill="none" fill-rule="evenodd">
        <path d="M46.8672266,53.7478512 L46.8672266,51.1025606 C46.8672266,47.3350255 48.3101124,45.3710977 53.4804531,42.2448452 C59.2519962,38.7979514 61.8572066,34.5093742 61.8572066,28.697751 C61.8572066,19.2789133 54.3622166,12.9863281 43.2199321,12.9863281 C31.6367657,12.9863281 24.3421765,19.4392339 24.1818559,29.9803161 L34.9233389,29.9803161 C35.1638198,25.6917389 38.0896715,22.9262079 42.4984892,22.9262079 C46.8271465,22.9262079 49.7930783,25.4111778 49.7930783,29.0584724 C49.7930783,32.705767 48.3902727,34.5494544 43.2199321,37.715787 C37.8892707,40.9221999 35.965423,44.4091738 36.2459842,51.1025606 L36.3261445,53.7478512 L46.8672266,53.7478512 Z M41.9373669,72.9863281 C45.9854631,72.9863281 49.1517958,69.9402359 49.1517958,66.0123802 C49.1517958,62.0845245 45.9854631,59.0384323 41.9373669,59.0384323 C37.8892707,59.0384323 34.7229381,62.0845245 34.7229381,66.0123802 C34.7229381,69.9402359 37.8892707,72.9863281 41.9373669,72.9863281 Z" id="?" fill="#333333" fill-rule="nonzero"></path>
    </g>
</svg>