<?xml version="1.0" encoding="UTF-8"?>
<svg width="100px" height="100px" viewBox="0 0 100 100" version="1.1" xmlns="http://www.w3.org/2000/svg" xmlns:xlink="http://www.w3.org/1999/xlink">
    <!-- Generator: Sketch 64 (93537) - https://sketch.com -->
    <title>help_icon</title>
    <desc>Created with Sketch.</desc>
    <g id="help_icon" stroke="none" stroke-width="1" fill="none" fill-rule="evenodd">
        <path d="M52.9930903,59.99809 L52.9930903,57.6467205 C52.9930903,54.2978004 54.2756555,52.5520868 58.8715139,49.7731957 C64.0017744,46.7092901 66.317517,42.8972215 66.317517,37.7313342 C66.317517,29.359034 59.6553036,23.765625 49.7510508,23.765625 C39.4549028,23.765625 32.9708236,29.5015412 32.8283164,38.8713921 L42.3763012,38.8713921 C42.590062,35.0593235 45.1908191,32.6010737 49.1097682,32.6010737 C52.9574636,32.6010737 55.5938474,34.8099358 55.5938474,38.0519755 C55.5938474,41.2940151 54.3469091,42.9328484 49.7510508,45.7473662 C45.0126851,48.597511 43.3025982,51.6970434 43.551986,57.6467205 L43.6232396,59.99809 L52.9930903,59.99809 Z M48.6109928,77.0989583 C52.2093005,77.0989583 55.0238185,74.3913208 55.0238185,70.8998935 C55.0238185,67.4084662 52.2093005,64.7008287 48.6109928,64.7008287 C45.0126851,64.7008287 42.1981672,67.4084662 42.1981672,70.8998935 C42.1981672,74.3913208 45.0126851,77.0989583 48.6109928,77.0989583 Z" id="test" fill="#fff"></path>
        <path d="M55.1818639,99.7376907 L54.7221657,95.2666681 C53.3697193,95.4058361 52.0062613,95.4851259 50.6343253,95.5037344 L50.6954132,99.9979121 C52.2080687,99.9773911 53.7045013,99.8897016 55.1818639,99.7376907 Z M40.6134431,99.1223495 C42.0744927,99.3999475 43.5580581,99.6139758 45.061153,99.7614481 L45.4997439,95.2883056 C44.1379959,95.1546928 42.787945,94.9605033 41.452378,94.7067461 L40.6134431,99.1223495 Z M65.103076,97.6822594 L63.7480377,93.3967913 C62.4504292,93.8073579 61.1330733,94.1595718 59.7990765,94.4520718 L60.7622431,98.8422512 C62.2345295,98.5194124 63.6825232,98.1316991 65.103076,97.6822594 Z M30.9295892,96.2359462 C32.308092,96.8052473 33.7176086,97.314694 35.1549007,97.7610477 L36.4878051,93.4686438 C35.1851764,93.0641067 33.9030035,92.6011436 32.644569,92.0814053 L30.9295892,96.2359462 Z M74.2909171,93.7181722 L72.1042585,89.7913555 C70.9130974,90.454512 69.6925188,91.0637912 68.4459603,91.6171099 L70.2694567,95.7251783 C71.6436713,95.1151955 72.9852712,94.4450802 74.2909171,93.7181722 Z M21.9892321,91.4242228 C23.2272617,92.263111 24.5048928,93.0479564 25.8187374,93.7753708 L27.9962851,89.8434945 C26.8028768,89.1827795 25.6397311,88.4685664 24.510316,87.7032684 L21.9892321,91.4242228 Z M82.6257447,87.8961285 L79.6912497,84.4917042 C78.6572092,85.3826242 77.5838623,86.2268495 76.4745942,87.0215602 L79.0924455,90.6750819 C80.3122997,89.8011331 81.4912103,88.8736712 82.6257447,87.8961285 Z M14.2582752,84.9649349 C15.3060993,86.0359975 16.4016714,87.0601572 17.5415486,88.0339714 L20.4612038,84.6168119 C19.4236151,83.7303941 18.4259895,82.7978662 17.4715632,81.8223013 L14.2582752,84.9649349 Z M89.6020802,80.5357412 L86.0445805,77.7888227 C85.2105079,78.8688495 84.3283131,79.9112364 83.4009281,80.9126524 L86.6987287,83.9664822 C87.716411,82.867555 88.6853406,81.7228288 89.6020802,80.5357412 Z M7.93132406,77.0333879 C8.74394557,78.2954686 9.6118066,79.5186173 10.5314904,80.6994173 L14.0772779,77.9373969 C13.2386063,76.8605974 12.4486062,75.7468402 11.7099307,74.5995643 L7.93132406,77.0333879 Z M94.9309886,71.9744732 L90.8948999,69.9967589 C90.2944992,71.2220046 89.6390963,72.41941 88.93092,73.5855109 L92.7726389,75.9184407 C93.5488974,74.6402261 94.2694696,73.324448 94.9309886,71.9744732 Z M3.32295857,67.9592819 C3.86348328,69.3633452 4.46553143,70.7368645 5.12580009,72.0765369 L9.1573453,70.0895773 C8.55485755,68.8671425 8.0076318,67.6177434 7.51756325,66.3447674 L3.32295857,67.9592819 Z M98.4331518,62.4900268 L94.080269,61.3703051 C93.7402953,62.6924766 93.3410628,63.9964196 92.8840522,65.2789455 L97.1179761,66.78734 C97.618456,65.3827985 98.0579118,63.9492969 98.4331518,62.4900268 Z M0.689649293,58.3180358 C0.938922141,59.8068119 1.25398012,61.2732959 1.63173268,62.714397 L5.97936442,61.5744568 C5.63438677,60.2583546 5.34842429,58.9247728 5.12268162,57.576692 L0.689649293,58.3180358 Z M99.9454058,52.4767052 L95.4561817,52.2570863 C95.3894673,53.6253754 95.2620966,54.9838804 95.0749536,56.3299628 L99.5267548,56.948696 C99.7312805,55.477543 99.8717987,53.9859116 99.9454058,52.4767052 Z M0.000970632841,48.1934318 L0.000970632841,52.7037558 L0.000970632841,50.0002582 C0.000970632841,50.9062148 0.0250627353,51.8065441 0.0726439685,52.7006402 L4.56088723,52.4618145 C4.51758354,51.6481059 4.49575637,50.8310694 4.49556341,50.0112268 C4.49556225,49.4517698 4.50524571,48.903125 4.52471079,48.3545561 L0.0329718516,48.1944087 L0.00899237387,49.0953868 L0.000970632841,50.0002582 L0.000970632841,48.1934318 Z M99.9065971,46.8269848 C99.8121205,45.3183948 99.6507492,43.8279444 99.425415,42.3585654 L94.9827803,43.0400065 C95.188877,44.3839691 95.335194,45.7409378 95.4208121,47.1082288 L99.9065971,46.8269848 Z M1.40482352,38.1859769 C1.05435445,39.6327422 0.766808693,41.1040883 0.545246677,42.5969547 L4.99120514,43.2563627 C5.19186813,41.9044001 5.45284355,40.5661483 5.77298352,39.2445343 L1.40482352,38.1859769 Z M98.2538359,36.8330164 C97.8581091,35.3794929 97.3984573,33.9523176 96.8780873,32.5546972 L92.6659307,34.1228498 C93.1410658,35.3989658 93.5586768,36.6971638 93.9172346,38.0142253 L98.2538359,36.8330164 Z M4.77500509,28.6505214 C4.13664947,30.0004694 3.55695226,31.3835815 3.0392032,32.7965679 L7.25940751,34.3429316 C7.72876696,33.062006 8.25563938,31.8038908 8.83818949,30.5719526 L4.77500509,28.6505214 Z M94.6599438,27.4813612 C93.9823125,26.1402134 93.2460418,24.8337408 92.4545019,23.5653135 L88.6411419,25.9443157 C89.3631608,27.1013053 90.0328432,28.2901693 90.6479175,29.5074439 L94.6599438,27.4813612 Z M10.0304281,19.9554293 C9.13019685,21.1512358 8.28237837,22.3887347 7.49038589,23.6645127 L11.3088594,26.0352985 C12.0286612,24.8757937 12.8003785,23.7490179 13.6214144,22.6584245 L10.0304281,19.9554293 Z M89.1794735,18.9251924 C88.2464212,17.7504742 87.2616482,16.6186863 86.2285973,15.5332714 L82.9733836,18.6324568 C83.9146338,19.6214494 84.8112504,20.652064 85.6602576,21.7209902 L89.1794735,18.9251924 Z M16.8571352,12.5620131 C15.7350642,13.5561854 14.6580097,14.6000273 13.6294166,15.6900941 L16.8982042,18.7749592 C17.8350605,17.7820987 18.8159335,16.831486 19.8376247,15.9262438 L16.8571352,12.5620131 Z M82.1051183,11.6619314 C80.9578847,10.7003002 79.7668518,9.78920852 78.5354454,8.93208219 L75.9681324,12.621292 C77.0877146,13.4006 78.1720537,14.2298987 79.2177503,15.1064156 L82.1051183,11.6619314 Z M25.1007151,6.63046419 C23.7989248,7.37955588 22.534043,8.18557363 21.3094683,9.04511896 L23.8912122,12.7242444 C25.0081942,11.9401994 26.159728,11.2066797 27.3423465,10.526161 L25.1007151,6.63046419 Z M73.7596607,5.99078261 C72.4452301,5.27975568 71.0953438,4.62589701 69.7133345,4.03253951 L67.9404635,8.16270826 C69.1935341,8.70071854 70.4212187,9.29497922 71.6200912,9.94345379 L73.7596607,5.99078261 Z M34.3590578,2.49398756 C32.9292352,2.96456948 31.5279046,3.49790155 30.1583245,4.09072518 L31.9430565,8.2157825 C33.1931531,7.67465319 34.4678133,7.1899703 35.7637224,6.7634469 L34.3590578,2.49398756 Z M64.4234626,2.10858604 C62.9962079,1.67943772 61.5420861,1.31234714 60.0642325,1.01044957 L59.1642957,5.41402532 C60.5031555,5.68751792 61.8259856,6.02093254 63.1297107,6.41295262 L64.4234626,2.10858604 Z M44.1404812,0.337983761 C42.6404648,0.513170904 41.1607254,0.754748339 39.7042796,1.05969944 L40.6256396,5.45884266 C41.9567443,5.18014354 43.3031358,4.96091617 44.6619719,4.80222086 L44.1404812,0.337983761 Z M49.8074201,4.49291691 L50.0033152,4.49250505 C51.3754865,4.49250505 52.7396814,4.55310605 54.0934113,4.67353551 L54.4921661,0.196666056 C53.3091987,0.0914163283 52.1143818,0.027363665 50.90916,0.00595258873 L50.0033152,-0.00208785019 L49.8074201,0.00595258873 L49.8074201,4.49291691 Z" id="Oval" fill="#fff" fill-rule="nonzero"></path>
    </g>
</svg>