<?xml version="1.0" encoding="UTF-8"?>
<svg width="176px" height="175px" viewBox="0 0 176 175" version="1.1" xmlns="http://www.w3.org/2000/svg" xmlns:xlink="http://www.w3.org/1999/xlink">
    <!-- Generator: Sketch 64 (93537) - https://sketch.com -->
    <title>a_27</title>
    <desc>Created with Sketch.</desc>
    <g id="Advertência" stroke="none" stroke-width="1" fill="none" fill-rule="evenodd">
        <g id="A-27" transform="translate(-12.000000, -12.000000)">
            <g id="a_27" transform="translate(9.750000, 9.000000)">
                <g id="advertencia_placa_base">
                    <rect id="Rectangle" fill="#FFCE00" fill-rule="evenodd" transform="translate(90.254834, 90.254834) rotate(45.000000) translate(-90.254834, -90.254834) " x="26.254834" y="26.254834" width="128" height="128" rx="8"></rect>
                    <rect id="Rectangle" stroke="#000000" stroke-width="3" transform="translate(90.254834, 90.254834) rotate(45.000000) translate(-90.254834, -90.254834) " x="33.254834" y="33.254834" width="114" height="114" rx="4"></rect>
                </g>
                <g id="car" transform="translate(46.500000, 79.618529)" fill="#000000" fill-rule="nonzero">
                    <path d="M8.17582418,7.32417582 L4.54209615,7.32417582 C4.0406456,7.32417582 3.63364286,7.73117857 3.63364286,8.23262912 C3.63364286,8.73407967 4.0406456,9.14108242 4.54209615,9.14108242 L8.17582418,9.14108242 C8.67727473,9.14108242 9.08427747,8.73407967 9.08427747,8.23262912 C9.08427747,7.73117857 8.67727473,7.32417582 8.17582418,7.32417582 Z" id="Path"></path>
                    <path d="M37.2036621,9.77513462 C37.031033,9.23186813 33.5644835,1.8864011 32.2672527,1.09785989 C30.9173049,0.276615385 22.8414643,0.0568049451 21.8021978,0.0568049451 C20.7629313,0.0568049451 12.6870907,0.276615385 11.3371429,1.09785989 C10.0399121,1.88452747 6.57336264,9.23186813 6.40073352,9.77513462 C6.24811813,10.2529945 6.51519505,10.7634725 6.99305495,10.9160879 C7.47636538,11.0669148 7.98326648,10.8016264 8.13400824,10.3237665 C8.41922527,9.42076374 11.5696429,3.27254396 12.2618626,2.66208242 C13.0304753,2.29510714 18.6899341,1.87362637 21.8021978,1.87362637 C24.9144615,1.87362637 30.5739203,2.29510714 31.2789148,2.61856319 C32.0328791,3.27262912 35.1851703,9.4208489 35.4703874,10.3238516 C35.5939615,10.7108407 35.9518242,10.9579038 36.3370247,10.9579038 C36.4278956,10.9579038 36.5205549,10.9452143 36.6132143,10.9160879 C37.0892005,10.7634725 37.3562775,10.2529093 37.2036621,9.77513462 Z" id="Path"></path>
                    <path d="M8.17582418,25.4926456 C7.75068132,25.4926456 7.40908516,25.7906374 7.31097527,26.1848654 L1.81682143,24.8113269 L1.81682143,24.5841923 C1.81682143,24.0827418 1.40981868,23.675739 0.908368132,23.675739 C0.406917582,23.675739 0,24.0828269 0,24.5842775 L0,28.2180055 C0,29.7205687 1.22271154,30.9432802 2.72527473,30.9432802 L6.35900275,30.9432802 C7.86156593,30.9432802 9.08427747,29.7205687 9.08427747,28.2180055 L9.08427747,26.4010989 C9.08427747,25.8996484 8.67727473,25.4926456 8.17582418,25.4926456 Z" id="Path"></path>
                    <path d="M42.6959423,23.6758242 C42.1944918,23.6758242 41.787489,24.0828269 41.787489,24.5842775 L41.787489,24.8114121 L36.2933352,26.1849505 C36.1952253,25.7907225 35.8536291,25.4927308 35.4284863,25.4927308 C34.9270357,25.4927308 34.520033,25.8997335 34.520033,26.4011841 L34.520033,28.2180055 C34.520033,29.7205687 35.7427445,30.9432802 37.2453077,30.9432802 L40.8791209,30.9432802 C42.3816841,30.9432802 43.6043956,29.7205687 43.6043956,28.2180055 L43.6043956,24.5842775 C43.6043956,24.0828269 43.1973929,23.6758242 42.6959423,23.6758242 Z" id="Path"></path>
                    <path d="M39.0622995,7.32417582 L35.4285714,7.32417582 C34.9271209,7.32417582 34.5201181,7.73117857 34.5201181,8.23262912 C34.5201181,8.73407967 34.9271209,9.14108242 35.4285714,9.14108242 L39.0622995,9.14108242 C39.56375,9.14108242 39.9707527,8.73407967 39.9707527,8.23262912 C39.9707527,7.73117857 39.56375,7.32417582 39.0622995,7.32417582 Z" id="Path"></path>
                    <path d="M43.5335385,15.894228 L41.0553269,16.390228 C40.7500962,16.4374945 34.6491429,17.3168214 33.1029753,17.3168214 C32.8812912,17.4930275 32.6814945,18.6594451 32.7050852,19.7514286 C38.2428434,19.4898022 42.554228,19.1427555 42.6232967,19.1373049 L43.6026071,19.0047033 C43.6007335,17.8001319 43.5825934,16.7717665 43.5335385,15.894228 Z" id="Path"></path>
                    <path d="M42.04375,11.9008489 C41.6367473,11.7827253 41.4241758,11.4866071 41.0208352,10.8833846 L40.7101538,10.4292005 C40.1668874,9.67157418 39.1168049,9.63887088 38.1011291,9.60982967 C37.7958984,9.60071703 37.3125879,9.58623901 37.0836648,9.53352198 C37.0055687,9.41906044 36.9001346,9.32273901 36.7729835,9.25375549 C35.0779478,8.32162637 28.6553269,7.32417582 21.8021978,7.32417582 C14.9490687,7.32417582 8.5264478,8.32162637 6.83132692,9.25367033 C6.70417582,9.32273901 6.59874176,9.41897527 6.51885714,9.53531044 C6.28993407,9.58802747 5.80662363,9.60250549 5.50139286,9.61161813 C4.48759066,9.64065934 3.43742308,9.67157418 2.89424176,10.4292005 L2.58356044,10.8852582 C2.18021978,11.4884808 1.96764835,11.7845989 1.5606456,11.9027225 C0.848412088,12.1116319 0.457846154,12.8420055 0.241612637,14.1701511 L2.03663187,14.6188846 C2.06567308,14.6188846 7.99229396,15.5000852 9.9926456,15.5000852 C10.6794148,15.5000852 11.2844258,15.7617115 11.742272,16.2559231 C12.7052308,17.296978 12.7506236,19.1211236 12.727033,19.8314835 C15.6503159,19.9531841 18.8061841,20.0422665 21.8021978,20.0422665 C24.8017885,20.0422665 27.9595302,19.9532692 30.8864753,19.8314835 C30.8664615,19.0284643 30.9119396,17.0172115 31.8112802,16.0669423 C32.1637775,15.6963049 32.6088489,15.5000852 33.1030604,15.5000852 C34.2785907,15.5000852 39.0223571,14.8514698 40.7501813,14.6007445 L43.3500934,14.0792802 C43.1319863,12.8056401 42.7414203,12.1043077 42.04375,11.9008489 Z M28.1612005,18.2252747 L15.4431951,18.2252747 C14.9417445,18.2252747 14.5347418,17.818272 14.5347418,17.3168214 C14.5347418,16.8153709 14.9417445,16.4083681 15.4431951,16.4083681 L28.1611154,16.4083681 C28.6625659,16.4083681 29.0695687,16.8153709 29.0695687,17.3168214 C29.0695687,17.818272 28.6626511,18.2252747 28.1612005,18.2252747 Z" id="Shape"></path>
                    <path d="M42.8158544,20.9433104 C42.6577885,20.956 31.416967,21.8590027 21.8021978,21.8590027 C12.1874286,21.8590027 0.946607143,20.956 0.835722527,20.948761 L0.0471813187,20.8670027 C0.145291209,22.8383132 0.448733516,25.7942995 1.38980495,26.29575 C2.37090385,26.8172143 13.7207363,27.3095522 21.8021126,27.3095522 C29.883489,27.3095522 41.2333214,26.8172143 42.2126319,26.2939615 C43.1573654,25.7907225 43.4608077,22.8147225 43.5571291,20.8434121 L42.8158544,20.9433104 Z" id="Path"></path>
                    <path d="M10.4068874,17.4876621 C10.2942143,17.3659615 10.1743022,17.3169066 9.9926456,17.3169066 C7.84879121,17.3169066 1.93307143,16.435706 1.68234615,16.3994258 L0.063532967,15.9960852 C0.0181401099,16.8571868 0.00178846154,17.8655385 0,19.0337445 L1.00111264,19.1373049 C1.05928022,19.1427555 5.36879121,19.4879286 10.9065495,19.7514286 C10.9246896,19.0955742 10.8374808,17.9527473 10.4068874,17.4876621 Z" id="Path"></path>
                </g>
                <polygon id="Rectangle" fill="#000000" points="113.634738 45 140.25 72.1185291 140.25 109.643663 100.25 109.643663 98.114773 103.294268 104.294536 96.9353505 100.25 88.7596115 103.156164 82.891553 106.192282 76.4171504 103.156164 70.5371402 107.372319 66.2338675 111.215052 62.1050777 109.322305 58.7617805 113.634738 56.0595323 112.813321 52.0222731"></polygon>
                <rect id="Rectangle" fill="#000000" transform="translate(106.039555, 54.245989) rotate(-29.000000) translate(-106.039555, -54.245989) " x="103.919386" y="52.1258198" width="4.2403375" height="4.2403375"></rect>
                <rect id="Rectangle-Copy" fill="#000000" transform="translate(103.157335, 57.511493) rotate(5.000000) translate(-103.157335, -57.511493) " x="102.380527" y="56.7346853" width="1.55361596" height="1.55361596"></rect>
                <rect id="Rectangle-Copy-2" fill="#000000" transform="translate(106.880052, 61.670467) rotate(-6.000000) translate(-106.880052, -61.670467) " x="105.307001" y="60.0974171" width="3.14610074" height="3.14610074"></rect>
                <rect id="Rectangle-Copy-3" fill="#000000" transform="translate(111.521557, 55.118092) rotate(16.000000) translate(-111.521557, -55.118092) " x="110.521776" y="54.1183103" width="1.9995625" height="1.9995625"></rect>
                <rect id="Rectangle-Copy-4" fill="#000000" transform="translate(91.499781, 67.638679) rotate(7.000000) translate(-91.499781, -67.638679) " x="90.5" y="66.6388974" width="1.9995625" height="1.9995625"></rect>
                <rect id="Rectangle-Copy-5" fill="#000000" x="97.5609382" y="72.1212005" width="1.55361596" height="1.55361596"></rect>
                <rect id="Rectangle-Copy-6" fill="#000000" transform="translate(97.351614, 67.521982) rotate(-60.000000) translate(-97.351614, -67.521982) " x="95.7053694" y="65.8757379" width="3.29248817" height="3.29248817"></rect>
                <rect id="Rectangle-Copy-7" fill="#000000" transform="translate(104.927677, 68.027444) rotate(19.000000) translate(-104.927677, -68.027444) " x="103.281433" y="66.3812003" width="3.29248817" height="3.29248817"></rect>
                <rect id="Rectangle-Copy-8" fill="#000000" transform="translate(99.865851, 62.965687) rotate(-7.000000) translate(-99.865851, -62.965687) " x="99.0890426" y="62.1888786" width="1.55361596" height="1.55361596"></rect>
                <rect id="Rectangle-Copy-9" fill="#000000" transform="translate(96.180772, 86.808508) rotate(-33.000000) translate(-96.180772, -86.808508) " x="95.4039636" y="86.0317" width="1.55361596" height="1.55361596"></rect>
                <rect id="Rectangle-Copy-10" fill="#000000" transform="translate(100.383878, 80.223931) rotate(21.000000) translate(-100.383878, -80.223931) " x="98.9155003" y="78.7555538" width="2.93675543" height="2.93675543"></rect>
                <rect id="Rectangle-Copy-11" fill="#000000" x="91.8542345" y="78.1505244" width="2.64489048" height="2.64489048"></rect>
                <rect id="Rectangle-Copy-12" fill="#000000" transform="translate(98.168963, 76.367521) rotate(-5.000000) translate(-98.168963, -76.367521) " x="97.1191609" y="75.317719" width="2.09960348" height="2.09960348"></rect>
                <rect id="Rectangle-Copy-14" fill="#000000" transform="translate(92.499563, 73.674816) rotate(-18.000000) translate(-92.499563, -73.674816) " x="91.4997813" y="72.6750352" width="1.9995625" height="1.9995625"></rect>
                <rect id="Rectangle-Copy-15" fill="#000000" transform="translate(87.884133, 80.150087) rotate(20.000000) translate(-87.884133, -80.150087) " x="86.884352" y="79.1503057" width="1.9995625" height="1.9995625"></rect>
                <rect id="Rectangle-Copy-13" fill="#000000" transform="translate(99.889144, 96.125350) rotate(17.000000) translate(-99.889144, -96.125350) " x="98.5501836" y="94.7863897" width="2.67791991" height="2.67791991"></rect>
            </g>
        </g>
    </g>
</svg>