<?xml version="1.0" encoding="UTF-8"?>
<svg width="176px" height="175px" viewBox="0 0 176 175" version="1.1" xmlns="http://www.w3.org/2000/svg" xmlns:xlink="http://www.w3.org/1999/xlink">
    <!-- Generator: Sketch 64 (93537) - https://sketch.com -->
    <title>a_36</title>
    <desc>Created with Sketch.</desc>
    <g id="Advertência" stroke="none" stroke-width="1" fill="none" fill-rule="evenodd">
        <g id="A-36" transform="translate(-12.000000, -12.000000)">
            <g id="a_36" transform="translate(9.750000, 9.000000)">
                <g id="advertencia_placa_base">
                    <rect id="Rectangle" fill="#FFCE00" fill-rule="evenodd" transform="translate(90.254834, 90.254834) rotate(45.000000) translate(-90.254834, -90.254834) " x="26.254834" y="26.254834" width="128" height="128" rx="8"></rect>
                    <rect id="Rectangle" stroke="#000000" stroke-width="3" transform="translate(90.254834, 90.254834) rotate(45.000000) translate(-90.254834, -90.254834) " x="33.254834" y="33.254834" width="114" height="114" rx="4"></rect>
                </g>
                <path d="M122.964943,53.8786892 C122.942492,53.6642051 122.90208,53.4435844 122.84221,53.2165277 C122.816765,53.1219332 122.783837,53.014766 122.744921,52.8948765 C122.72247,52.8239306 122.685051,52.7191582 122.631168,52.5804097 C122.554834,52.3864311 122.460539,52.1831727 122.352773,51.9703351 C122.342296,51.9513264 122.328825,51.9387537 122.309368,51.9324673 C122.28991,51.926181 122.268955,51.9278274 122.250994,51.9371073 C122.221059,51.9513264 122.207589,51.975873 122.210582,52.0104479 L122.231537,52.3511078 C122.23902,52.4645614 122.245007,52.5780149 122.246504,52.6914684 L122.250994,53.0321283 C122.250994,53.1440851 122.248001,53.2566406 122.243511,53.3702438 L122.227046,53.7109037 C122.215072,53.8637217 122.203098,53.9756784 122.194118,54.0466243 L122.146222,54.382345 C122.123771,54.5085208 122.102816,54.6188312 122.080365,54.7134257 C122.056417,54.8222393 122.027979,54.9310529 121.99505,55.0398665 C121.963619,55.1501768 121.927697,55.2558473 121.888781,55.3567281 C121.839389,55.4812576 121.795983,55.5836351 121.757067,55.6640105 L121.619367,55.9219003 L121.595419,55.9572235 C121.540039,56.0504709 121.478672,56.1410242 121.408325,56.2293324 C121.343965,56.3128509 121.270624,56.3963695 121.188303,56.4800377 C121.114962,56.5541267 121.032641,56.6274674 120.942836,56.69991 C120.908411,56.7262528 120.873986,56.7513982 120.838064,56.7754958 L120.860515,56.4325908 L120.845548,56.1702108 L120.844051,56.1607813 L120.844051,56.1512021 L120.838064,56.1157292 L120.833574,56.0992649 L120.832077,56.0804059 L120.829083,56.0708267 L120.829083,56.063792 L120.812619,55.9904513 L120.805136,55.9739871 L120.796155,55.9361194 L120.787175,55.9147159 C120.83058,55.8499067 120.869496,55.7859955 120.905418,55.7232818 C120.947327,55.6444031 120.989236,55.5608846 121.028151,55.4725764 L121.12993,55.2148364 C121.162858,55.1296714 121.191297,55.0421116 121.215245,54.9523067 L121.31403,54.5502801 L121.412815,53.8550405 L121.448737,52.9516033 L121.436763,52.7743883 C121.426286,52.6103446 121.409822,52.4298368 121.390364,52.2328647 C121.372403,52.073461 121.349952,51.8938512 121.321514,51.6935863 C121.291579,51.4838919 121.261644,51.3042821 121.231709,51.1544576 L121.040125,50.3574391 C121.022164,50.2896364 120.995223,50.2020766 120.959301,50.0949095 L120.865005,49.8347746 L120.6375,49.3311188 C120.583617,49.2318844 120.537218,49.151509 120.498302,49.0899926 C120.39802,48.9243026 120.285764,48.7746278 120.16303,48.6406688 C120.110644,48.5791524 120.043291,48.5120981 119.960969,48.4396555 C119.889126,48.3764927 119.814288,48.3181195 119.736457,48.2646856 C119.664613,48.2140955 119.582292,48.1660499 119.490991,48.1203991 C119.41765,48.0825314 119.329342,48.0446636 119.226066,48.0067959 C119.194634,47.99572 119.163203,47.9982644 119.133268,48.0138306 C119.103333,48.0281994 119.082378,48.05095 119.070404,48.0825314 C119.055437,48.1266854 119.064417,48.166948 119.092855,48.2031693 C119.263485,48.4034342 119.419147,48.6168705 119.559841,48.8439272 C119.694548,49.0632008 119.815785,49.2963942 119.923551,49.5439564 C119.984917,49.689141 120.032813,49.8127724 120.067239,49.91515 C120.104657,50.0145341 120.143573,50.14071 120.185482,50.2936776 C120.255829,50.5442333 120.311209,50.8028714 120.351621,51.0692926 C120.392033,51.3325706 120.418974,51.5974951 120.429452,51.8639163 C120.442922,52.1113288 120.444419,52.3771513 120.433942,52.6607851 C120.429452,52.8089631 120.421968,52.9421737 120.411491,53.0604169 C120.401013,53.1928791 120.389039,53.3260897 120.375569,53.4600487 L120.266306,54.2356636 C120.240861,54.3209783 120.212423,54.4037485 120.180991,54.4841238 L120.106154,54.6590937 L119.980427,54.8599573 L119.907087,54.9262633 L119.890622,54.9380876 L119.877152,54.945272 L119.84572,54.9523067 L119.830752,54.9523067 L119.728973,54.9050095 L119.708019,54.8978251 L119.706522,54.89558 L119.637672,54.8671417 L119.628691,54.8625018 L119.185654,54.7016014 C119.073398,54.6668768 118.958148,54.6352954 118.838408,54.6070069 L118.554026,54.5478853 L118.545046,54.5478853 L118.49715,54.536061 C118.393874,54.5124124 118.293592,54.4769395 118.199297,54.4296422 C118.100511,54.3808482 118.00921,54.3239718 117.928385,54.2594619 C117.911921,54.2468892 117.870012,54.212015 117.799665,54.1552882 L117.681422,54.0419844 L117.431465,53.7486217 L117.426975,53.7438321 L117.426975,53.741587 L116.901616,52.9658224 L116.446604,52.3675721 L115.74463,51.5729484 C115.716191,51.5430134 115.681766,51.528046 115.641354,51.528046 C115.600942,51.528046 115.566516,51.5415167 115.536581,51.5681588 C115.511137,51.5934539 115.497666,51.6233888 115.494673,51.6581134 C115.490182,51.6928379 115.496169,51.7242697 115.515627,51.7527079 L115.515627,51.7551027 L115.837428,52.3036609 L115.844912,52.31788 L115.853892,52.3320991 L116.026018,52.6750042 L116.436127,53.6540272 C116.43463,53.6737843 116.431637,53.6926433 116.428643,53.7109037 L116.428643,53.7155436 L116.42565,53.7179384 L116.42116,53.7367974 L116.42116,53.7391922 L116.419663,53.7438321 L116.413676,53.7580512 L116.412179,53.7626912 L116.409186,53.7652356 L116.407689,53.7722704 L116.400205,53.7864895 L116.395715,53.7912791 L116.392722,53.7983138 L116.347819,53.8384266 L116.343329,53.8408214 L116.335845,53.845611 L116.328361,53.8480058 L116.326865,53.8502509 L116.322374,53.8526457 C116.304413,53.8605785 116.280465,53.8683616 116.25053,53.8762944 L116.165216,53.8881187 L116.073914,53.8881187 L115.777558,53.8480058 C115.705714,53.8321403 115.63836,53.8156761 115.576994,53.7983138 C115.45426,53.7635892 115.32105,53.7194351 115.177362,53.6658515 L114.879509,53.5498536 L114.867535,53.5429685 L114.860051,53.5405737 L114.855561,53.5405737 L110.462605,51.5138268 C110.423689,51.4933214 110.384774,51.4903279 110.344362,51.5043973 C110.302453,51.5186164 110.272518,51.5446599 110.254557,51.5823779 C110.238093,51.6123129 110.233602,51.6438943 110.239589,51.6771221 C110.244079,51.7100505 110.259047,51.7384888 110.282995,51.7621374 C110.486553,51.9718318 110.720045,52.1839211 110.98048,52.3982554 C111.097226,52.4944963 111.219959,52.5905876 111.351673,52.6868285 L111.740828,52.9587877 C111.775253,52.9809395 111.906967,53.06356 112.135969,53.2069485 L112.336534,53.3275864 L112.360482,53.3442003 L113.047489,53.7344026 L115.26567,54.7845212 L115.683263,54.9499119 L115.687753,54.9523067 C115.68925,54.9523067 115.692243,54.9530551 115.69823,54.9547015 L115.699727,54.9547015 L115.939207,55.0256474 C116.014044,55.0445064 116.094869,55.0611203 116.17719,55.0753394 C116.247537,55.0879121 116.328361,55.09809 116.42116,55.1060228 L116.608253,55.1132072 L116.624718,55.1154523 L116.632201,55.1154523 L116.639685,55.1132072 L116.66962,55.1132072 C116.753438,55.1103633 116.826779,55.104975 116.886648,55.0964436 L117.741292,55.3330795 C117.805652,55.3520882 117.862528,55.3707975 117.913418,55.3896566 L118.248689,55.5174789 C118.260663,55.5222685 118.316043,55.5457674 118.414828,55.5885744 L118.573484,55.6664053 L118.937194,55.8958568 L118.964135,55.9171107 L118.970122,55.9219003 L119.107823,56.0567573 L119.112313,56.0661868 L119.121294,56.0754666 L119.124287,56.0804059 L119.160209,56.1275535 C119.17817,56.1574884 119.190144,56.1781436 119.194634,56.1890698 C119.217086,56.2300807 119.23355,56.2742348 119.24253,56.3215321 L119.24253,56.3239269 L119.247021,56.3475755 L119.266478,56.3972675 L119.273962,56.4233109 L119.275459,56.4373804 L119.279949,56.4493544 L119.290426,56.4870724 L119.291923,56.4941071 L119.291923,56.5012915 L119.3024,56.5391593 L119.3024,56.546194 L119.303897,56.5533784 L119.315871,56.6312093 L119.323355,56.8040837 L119.320361,56.8181531 L119.315871,56.9127476 L119.312877,56.924572 L119.311381,56.9530102 L119.279949,57.1137609 L119.275459,57.12798 L119.261988,57.1847068 L119.266478,57.1752773 L119.258995,57.1941363 L119.261988,57.1847068 L118.928213,57.8753065 L118.384894,58.7928132 L118.031661,59.2515665 L117.982268,59.3058985 L117.974784,59.3154777 L117.688906,59.5920768 L117.651487,59.6229098 L117.64101,59.6323393 L117.615565,59.6511983 L117.497322,59.6535931 C117.437452,59.6598795 117.394046,59.6661658 117.370098,59.6724522 C117.34615,59.6772418 117.304241,59.6874196 117.244371,59.7032852 L116.954002,59.8119491 L116.946518,59.8167387 L116.942028,59.8167387 L116.942028,59.8191335 L116.939035,59.8191335 L116.85372,59.859396 L116.846236,59.8616411 L116.841746,59.8664307 L116.466062,60.0768735 C116.323871,60.1651817 116.190661,60.2549866 116.064934,60.3465876 L116.014044,60.3819109 L114.640029,61.5360535 L114.617578,61.5384483 C114.59363,61.5384483 114.568185,61.5360535 114.541244,61.5312639 C114.517296,61.5264743 114.493348,61.5194396 114.470897,61.51001 C114.448445,61.503574 114.425994,61.4942942 114.403543,61.4815718 C114.384085,61.4721423 114.363131,61.4586716 114.34068,61.4413093 C114.295777,61.4098776 114.258358,61.3760511 114.226927,61.3396801 C114.199985,61.3113915 114.17005,61.2735238 114.134128,61.2262266 L114.014388,59.6229098 L113.950028,58.0028294 C113.950028,57.98876 113.945538,57.9769357 113.936558,57.9675062 C113.924584,57.9564302 113.91261,57.9517903 113.897642,57.9531374 C113.869204,57.9531374 113.85274,57.9666081 113.848249,57.9935496 L113.322891,60.7673235 L113.321394,60.788727 L113.252544,61.0937643 L113.183693,61.2995672 C113.167229,61.3483612 113.143281,61.405088 113.113346,61.4697475 L113.048986,61.5950254 L113.044496,61.5998149 L112.954691,61.7463466 L112.9502,61.7559258 L112.94571,61.7605657 L112.942717,61.7653553 L112.929246,61.7818195 L112.909788,61.8102578 L112.69276,62.0609631 C112.64187,62.1114035 112.596968,62.1524144 112.556556,62.1838461 L112.540091,62.20046 L112.531111,62.2074948 L112.523627,62.2146791 L112.297618,62.3850091 L112.294625,62.3872542 L112.246729,62.4203324 L111.616598,62.7585975 C111.53278,62.7975129 111.436988,62.8376258 111.327725,62.8792354 L111.043343,62.4038681 L111.047833,62.4110525 C111.035859,62.3872542 111.023885,62.3668984 111.010415,62.3493865 C111.004428,62.3384602 110.995447,62.3281327 110.981976,62.3187032 L110.974493,62.3116684 L110.956532,62.2974493 L110.952041,62.2950545 L110.949048,62.2928094 L110.946054,62.2928094 L110.946054,62.2904146 L110.941564,62.2904146 L110.941564,62.2878701 L110.937074,62.285625 L110.935577,62.285625 L110.911629,62.2761955 L110.899655,62.2738007 C110.890675,62.2706575 110.875707,62.2690111 110.854753,62.2690111 L110.826315,62.2690111 L110.806857,62.2738007 L110.797876,62.2738007 L110.74549,62.2878701 L110.738006,62.2928094 L110.729026,62.2950545 L110.727529,62.2974493 L110.721542,62.2974493 L110.715555,62.3020892 L110.709568,62.3020892 L110.708071,62.3046337 L110.705078,62.3046337 L110.699091,62.3092736 L110.658679,62.3306771 L110.362323,62.5267512 L110.341368,62.5433651 L110.333884,62.5503998 L110.327897,62.5551894 L110.31742,62.5646189 L109.941736,62.8603764 L109.742669,62.9808646 L109.533124,63.0636348 L109.431345,63.0824938 L109.265206,63.0872834 L109.100564,63.0682747 C109.036204,63.0540556 108.985314,63.0383397 108.946399,63.0211271 C108.897006,62.9989753 108.855097,62.9723331 108.819175,62.9407517 C108.781756,62.9075239 108.751821,62.8681595 108.726377,62.8225086 C108.702429,62.7783546 108.685965,62.7294109 108.676984,62.6758273 L108.66052,62.5125321 L108.6695,62.3447466 C108.675487,62.2928094 108.685965,62.236831 108.697939,62.1768114 L108.783253,61.8623446 L108.787743,61.8503706 L108.787743,61.8457307 L109.109544,60.9566622 L109.199349,60.65387 C109.238265,60.5088351 109.2682,60.3920887 109.286161,60.3037806 C109.311605,60.1982598 109.33705,60.0800167 109.359501,59.9490512 L109.416378,59.5920768 C109.435835,59.4311763 109.447809,59.3106881 109.455293,59.2303127 C109.462777,59.1231455 109.467267,59.0023579 109.471757,58.8685486 C109.474751,58.73444 109.473254,58.6130537 109.468764,58.5042401 C109.459783,58.3434893 109.449306,58.2228514 109.440326,58.142476 C109.438829,58.117181 109.428352,58.0960768 109.407397,58.0785649 C109.386443,58.062849 109.362495,58.0565627 109.33705,58.0595562 C109.293644,58.062849 109.266703,58.0855996 109.256226,58.1282569 C109.166421,58.4672704 109.075119,58.784132 108.983817,59.0789915 C108.929934,59.2569548 108.880542,59.4130657 108.835639,59.5471743 C108.78026,59.7112179 108.72488,59.8664307 108.672494,60.0129624 L108.388112,60.689343 C108.36566,60.7382866 108.329738,60.8099809 108.278849,60.9045754 C108.23694,60.9801611 108.195031,61.0479638 108.154619,61.1079835 C108.102233,61.1804261 108.054337,61.240296 108.009434,61.2877429 C107.980996,61.3160315 107.954055,61.3396801 107.92861,61.3585391 C107.898675,61.380691 107.871733,61.3956585 107.846289,61.4035912 C107.820844,61.4161639 107.795399,61.4208038 107.768458,61.4178104 C107.756484,61.4178104 107.743013,61.4152659 107.731039,61.410626 L107.707091,61.4011964 L107.111385,60.7815426 L106.786591,60.4789001 L106.172924,59.9728495 L105.583205,59.5732177 L105.578715,59.5708229 L105.575722,59.5708229 C105.400602,59.4793716 105.264398,59.400493 105.167109,59.3343367 L104.978519,59.1972346 C104.929126,59.1593668 104.87225,59.1089264 104.804896,59.0457636 C104.745026,58.9827505 104.69713,58.9252754 104.661208,58.8731886 C104.63277,58.8306809 104.613312,58.7998479 104.604332,58.7809889 L104.559429,58.6839996 C104.548952,58.6509214 104.538475,58.6178433 104.530991,58.5846155 C104.525004,58.5626133 104.520514,58.5286371 104.51752,58.4828366 C104.51303,58.4436218 104.514527,58.4088972 104.519017,58.3789623 C104.520514,58.3605523 104.525004,58.3306173 104.533985,58.2891574 L107.19221,52.268188 C107.20568,52.2367563 107.20568,52.2044265 107.193706,52.1713484 C107.181732,52.1381206 107.159281,52.11537 107.12785,52.1027973 C107.097915,52.0885782 107.06798,52.0861834 107.038045,52.0956129 C107.00811,52.1066888 106.985658,52.1255479 106.969194,52.1524893 L106.966201,52.1524893 L103.555111,57.9272436 L103.547628,57.9248488 L103.540144,57.922454 L103.52817,57.9202089 L103.369515,57.8657273 L103.275219,57.8208248 L103.266239,57.8137901 L103.185415,57.7663432 L103.147996,57.7380547 L103.137519,57.7334147 L103.133028,57.7284755 L103.128538,57.7262303 L103.1001,57.7027314 L103.092616,57.695547 L103.074655,57.6813279 L103.067171,57.6718984 L103.058191,57.6648637 L103.041727,57.6481001 L103.037236,57.645855 L103.034243,57.6410654 L103.008798,57.6151716 L102.927974,57.5157875 L102.92498,57.5109979 L102.92049,57.506358 L102.883071,57.4472365 L102.878581,57.4376573 L102.859123,57.4069739 L102.788776,57.2556527 L102.760338,57.1752773 L102.757344,57.1704877 L102.757344,57.163453 L102.695978,56.9127476 L102.695978,56.9197824 L102.692984,56.9009233 L102.695978,56.9127476 L102.698971,55.8012624 L102.790273,54.4485012 L102.790273,54.4344318 L102.847149,53.9402055 L103.050707,52.5828045 L103.345567,51.1165898 L103.881402,49.0639492 L103.882899,49.0615544 C103.893376,49.0220403 103.888886,48.9850706 103.869428,48.950346 C103.849971,48.9157711 103.821533,48.8919728 103.78112,48.8794002 C103.748192,48.8699706 103.71676,48.8716171 103.686825,48.8841898 C103.655393,48.8969121 103.631446,48.9172679 103.613485,48.9457061 L103.507215,49.1229211 L103.498235,49.1347454 L102.968386,50.116313 L102.601683,50.9438651 L102.389144,51.5138268 C102.383157,51.5265492 102.357713,51.6013866 102.309817,51.7384888 L101.913178,53.1668357 L101.616822,54.8743261 L101.616822,54.8907904 L101.612332,54.9192286 L101.506063,56.1583865 L101.506063,56.1890698 L101.518037,56.2600157 L101.537495,56.5343697 L101.533004,56.595886 C101.533004,56.5990292 101.530011,56.6171398 101.525521,56.650218 L101.522527,56.6550076 L101.522527,56.6597972 L101.518037,56.6668319 L101.51654,56.6668319 L101.471638,56.6455781 L101.420748,56.6123503 L101.292028,56.5012915 C101.251616,56.3954714 101.220184,56.3001286 101.194739,56.2151133 L101.104934,55.8864273 C101.073503,55.7382492 101.051051,55.6270408 101.040574,55.5529518 C101.021116,55.440995 101.007646,55.3282899 100.998665,55.2148364 C100.988188,55.1028796 100.980704,54.9886777 100.976214,54.8717817 C100.974717,54.7584778 100.974717,54.6441262 100.976214,54.5288766 C100.980704,54.3067592 101.000162,54.0789541 101.031594,53.845611 C101.061529,53.6107712 101.098947,53.3835648 101.146843,53.1644409 C101.172288,53.0445513 101.197733,52.9327442 101.224674,52.8287202 C101.253112,52.7184099 101.284544,52.6072015 101.317473,52.4953944 C101.341421,52.4100797 101.374349,52.2997694 101.419252,52.164164 L101.781465,51.1875357 C101.797929,51.1481712 101.797929,51.1079087 101.781465,51.0670475 C101.765,51.0275333 101.736562,50.9990951 101.69615,50.9817328 C101.657234,50.966017 101.619816,50.9652686 101.582397,50.9794877 C101.544978,50.9935571 101.51654,51.0179541 101.497082,51.0526787 L100.84001,52.3771513 L100.501745,53.2023086 C100.444868,53.3584194 100.392482,53.508244 100.344586,53.6516324 L100.209879,54.1105355 C100.175454,54.2443448 100.139532,54.3997072 100.102113,54.5763235 C100.072178,54.7354279 100.045237,54.8939335 100.024282,55.0516908 C100.004824,55.1935825 99.9913536,55.3543333 99.9838699,55.5339431 L99.9958439,56.0968701 L100.004824,56.1868247 L100.004824,56.1938594 L100.007818,56.2032889 L100.046733,56.4752481 L100.05272,56.4894672 L100.066191,56.565053 L100.070681,56.5792721 L100.070681,56.5887016 L100.179944,56.9648345 L100.187428,56.9790536 L100.241311,57.1231905 L100.248794,57.1374096 L100.253285,57.1516287 L100.513719,57.6292411 L100.669381,57.8398335 L101.021116,58.2110271 L101.02411,58.2110271 L104.938107,60.9163997 L104.939604,60.9187945 L105.592186,61.3206714 C105.619127,61.3396801 105.687978,61.3886238 105.798737,61.4673527 L106.178911,61.7937935 C106.237284,61.8503706 106.295657,61.9103902 106.352534,61.973553 L106.508196,62.1649871 C106.559085,62.2344362 106.603988,62.3037357 106.642903,62.3731848 C106.687806,62.4535602 106.725224,62.5267512 106.752166,62.5930571 C106.782101,62.6671462 106.807545,62.7443784 106.829997,62.8247538 L106.831493,62.8319381 L106.831493,62.8413677 L106.835984,62.8554371 L106.859932,62.976075 L106.859932,62.9904438 L106.874899,63.146405 L106.876396,63.1604744 L106.874899,63.3308044 L106.871906,63.3403835 L106.871906,63.3474183 L106.867415,63.3947155 L106.867415,63.4089346 L106.846461,63.5484316 L106.841971,63.5650455 C106.835984,63.5916876 106.831493,63.6114447 106.827003,63.624167 L106.77312,63.8226358 L106.765636,63.8370046 L106.746179,63.8890915 L106.744682,63.8890915 L106.578543,63.9220199 L106.295657,63.6572452 L105.256914,62.8603764 L104.709104,62.5292956 L104.313963,62.321098 L103.728734,62.0632082 L103.718257,62.0561735 L102.838169,61.7605657 L102.272398,61.6234636 L102.258927,61.6188236 L101.371356,61.4767822 L100.931312,61.4389145 L100.919338,61.4366694 L100.217363,61.4130208 C100.200898,61.4130208 100.191918,61.4208038 100.191918,61.4366694 C100.191918,61.4475956 100.194911,61.4546304 100.200898,61.4579232 L100.250291,61.8882383 L100.362547,62.4156924 L100.368534,62.4347011 L100.384998,62.4984626 L100.392482,62.5174713 L100.396972,62.5385755 L100.558621,62.9878993 L100.766669,63.4159693 L100.856474,63.5650455 C100.880422,63.6059067 100.911854,63.6548504 100.950769,63.7115771 L101.000162,63.782523 L101.004652,63.7919525 L101.064522,63.8700828 L101.076496,63.8890915 L101.154327,63.9883259 L101.155824,63.990571 L101.586887,64.6126196 L102.014957,65.1044511 L102.028428,65.1162754 L102.040402,65.1304945 L102.558277,65.5916427 C102.624134,65.6435798 102.706455,65.7044975 102.806737,65.7736473 L103.1001,65.9628362 L103.490751,66.1732791 L104.026587,66.3956959 L104.037064,66.397941 L104.044548,66.4028802 L104.450167,66.5280084 L104.771968,66.6037439 L104.782445,66.6037439 L105.020428,66.6486463 L104.99648,66.6818741 C104.935113,66.7589567 104.893204,66.8086487 104.87225,66.8308006 L104.63277,67.0696816 C104.629777,67.0743215 104.62379,67.0798595 104.613312,67.0861458 L104.596848,67.1027597 L104.055025,67.5119707 L104.046045,67.5166107 L103.600014,67.7837802 C103.576066,67.7948562 103.561098,67.8027889 103.556608,67.8074288 L102.709449,68.3158742 L102.704958,68.318269 L102.700468,68.3230586 L102.639101,68.3631715 L102.586715,68.4152583 L102.582225,68.4222931 L102.574741,68.4270826 L102.565761,68.4413018 L102.544806,68.4649504 L102.345739,68.6517446 L102.338255,68.6611741 L102.31281,68.6896123 L102.309817,68.6942522 L102.230489,68.7982762 L102.225999,68.8078554 L102.206541,68.836144 L102.146671,68.9543871 L102.140684,68.9756409 L102.1332,68.98986 L102.1332,68.9946496 L102.121226,69.0277277 L102.104762,69.1034632 L102.104762,69.1081031 L102.101769,69.1152875 L102.101769,69.124717 L102.100272,69.1363917 L102.100272,69.148216 L102.097278,69.1696195 L102.097278,69.2594244 L102.101769,69.2925025 L102.101769,69.2996869 L102.104762,69.3043268 L102.116736,69.3706328 L102.145174,69.4557978 L102.158645,69.4864811 L102.161639,69.4960603 L102.197561,69.5646114 L102.202051,69.5692513 L102.203548,69.5740409 L102.272398,69.6780649 L102.272398,69.6708805 L102.276888,69.6850996 L102.272398,69.6780649 L102.263418,70.5436344 C102.263418,70.5530639 102.264914,70.5600987 102.270901,70.5648882 L102.270901,70.567283 C102.300836,70.6081443 102.338255,70.6484068 102.386151,70.6877713 C102.42357,70.7162095 102.446021,70.7326737 102.452008,70.7374633 L102.520858,70.7823658 C102.597192,70.8298127 102.695978,70.8762119 102.818711,70.9220124 L103.082139,71.0023878 L103.083636,71.0023878 L103.086629,71.0047826 L103.092616,71.0047826 L103.10459,71.0070277 L103.176434,71.1466743 L103.189905,71.1677785 L103.201879,71.1915768 L103.290187,71.3168546 L103.299167,71.3262841 L103.329102,71.3665466 L103.436868,71.4800002 L103.445849,71.4870349 L103.46381,71.5060436 L103.565589,71.5888138 L103.577563,71.5959981 L103.608994,71.6194971 L103.625459,71.6290763 L103.629949,71.6337162 L103.802075,71.7307055 L104.111902,71.8371243 L104.138843,71.8417642 L104.152314,71.8467035 L104.80789,71.9766212 L104.828844,71.9766212 L104.848302,71.979016 L104.950081,71.9766212 L104.968042,71.9908404 C105.00097,72.0207753 105.053356,72.0625346 105.122207,72.1161182 L105.554767,72.411726 L105.566741,72.4165156 L105.575722,72.4235503 L105.619127,72.4495937 L105.631101,72.4543833 L105.762815,72.5275743 L106.304638,72.7594206 L106.740192,72.8800585 L106.936266,72.9061019 L106.936266,73.0738874 C106.934769,73.1244775 106.928782,73.2032065 106.919802,73.3103737 C106.910821,73.4143977 106.901841,73.4925279 106.89286,73.5444651 L106.785094,74.2468891 L106.312122,76.5620593 C106.294161,76.5620593 106.2762,76.5620593 106.256742,76.5620593 L106.21184,76.5620593 L105.806221,76.5928924 L104.914159,76.7418188 L102.899536,77.2240711 C102.651075,77.2903771 102.420576,77.3486006 102.206541,77.3991907 L100.811572,77.6876141 C100.498751,77.7411977 100.265259,77.7790654 100.1081,77.8012173 L99.4016348,77.888777 C99.1681421,77.9139224 98.9331526,77.9351762 98.6951696,77.9525385 L98.5170566,77.9667576 C98.4377289,77.9699008 98.3793557,77.973044 98.3404403,77.9761871 L97.8105914,77.997441 C97.7896369,77.997441 97.7746694,77.9981893 97.7656889,77.9998358 L97.277749,78.0044757 C97.0143213,78.0014822 96.777835,77.9959442 96.5682903,77.9880114 C96.2928886,77.9737923 96.0578991,77.9580765 95.8633218,77.9407142 L95.511586,77.9076361 C95.5026055,77.9059896 95.3858591,77.8917705 95.1643404,77.8651284 L94.0387856,77.6404665 C93.9100653,77.6166682 93.8142734,77.600204 93.7499132,77.5907744 L91.943338,77.3304899 L89.8344197,77.1532749 L88.6684527,77.105828 L85.9323968,77.1176523 C85.580661,77.0172205 85.2408991,76.9337019 84.914608,76.8670966 L83.8339557,76.6943719 L82.744323,76.6139965 L81.6516967,76.6258208 C81.3059478,76.6448295 80.9437348,76.678656 80.5665542,76.7275997 L80.026228,76.812615 C79.9334297,76.8268341 79.8451215,76.843448 79.7598068,76.862307 L78.6192846,77.1296263 L78.6147944,77.1296263 L78.4381781,77.1815635 C78.0969195,77.2794508 77.7541641,77.3667112 77.4084153,77.4440931 C77.0716469,77.521475 76.7229045,77.5907744 76.363685,77.6522908 L75.1124034,77.8248659 L74.2397991,77.9098812 L74.2233349,77.9098812 L73.7009697,77.9926514 C73.5243534,78.0258792 73.3462404,78.0637469 73.1666306,78.1062546 C73.0124655,78.1457687 72.8358492,78.1945627 72.6397752,78.2527862 L72.147345,78.4207214 L72.1398612,78.425511 L72.123397,78.4303006 L71.8375181,78.5437541 L71.1729618,78.8510365 L71.1654781,78.8559758 L71.1564976,78.8582209 L70.3587308,79.3145795 L70.0758453,79.5039181 L69.3020265,80.0833094 C69.1388809,80.2566328 68.9772321,80.4404335 68.8200735,80.6342624 C68.6748889,80.8155187 68.5312011,81.0142868 68.38901,81.2301179 C68.2572962,81.433526 68.1345628,81.6448669 68.0223067,81.8638412 L67.7304407,82.5378269 C67.6451261,82.7743132 67.5747789,83.0085543 67.5193992,83.2404006 C67.4625228,83.4783836 67.4206139,83.7187613 67.3921756,83.9615339 C67.3652342,84.1980201 67.3502667,84.4415411 67.3472732,84.6922464 L67.3802016,85.4181694 C67.3981626,85.6342998 67.4310911,85.8746776 67.478987,86.139602 C67.5253862,86.3790818 67.5792692,86.615568 67.6421326,86.8489111 C67.6960155,87.0523192 67.7663627,87.2840158 67.8546709,87.5443003 L68.1136083,88.2205312 C68.1974262,88.4287289 68.2962116,88.6493496 68.4084677,88.8826927 L68.864976,89.7671212 L69.0894882,90.1574732 C69.1643256,90.2832 69.2436533,90.4149139 69.3289679,90.5523154 L69.5579704,91.1198823 C69.6402916,91.3122145 69.7405737,91.5320868 69.8588168,91.779649 L70.191095,92.4228017 C70.2913771,92.6088476 70.4096202,92.81944 70.5488178,93.0542798 L71.005326,93.7825976 L71.0128098,93.7921768 L71.0143065,93.7968167 L71.1250659,93.9693918 C71.1909228,94.0782054 71.2403155,94.181481 71.2762375,94.2793683 C71.3151529,94.3754596 71.3465846,94.4850215 71.3735261,94.6080543 C71.3959773,94.7277941 71.4094481,94.841996 71.4139383,94.9508096 C71.4184286,95.0644128 71.4139383,95.1793631 71.4004676,95.2962591 C71.3869968,95.4128558 71.3690359,95.5272074 71.3435911,95.6391642 L71.2986887,95.8069496 C71.2867147,95.8511037 71.2702505,95.9070821 71.2463025,95.9748848 L71.1205757,96.3035707 C71.0277773,96.5167077 70.9200114,96.7262525 70.797278,96.9328037 C70.7478853,97.0166216 70.6850219,97.1169038 70.6101845,97.2351469 L70.4096202,97.5285095 C70.2644356,97.7305706 70.119251,97.9191608 69.9740665,98.0957771 C69.709142,98.4205715 69.3903346,98.7753009 69.0161475,99.1599652 C68.8485117,99.3305945 68.6793792,99.4982303 68.5057564,99.6643694 C68.3201596,99.8409857 68.1465368,100.002634 67.9803977,100.150813 L67.0134983,100.993482 L67.0105048,100.993482 L67.0090081,100.997972 L66.9117194,101.075803 L66.6512852,101.185066 L66.6393112,101.191053 L66.6183568,101.20153 L66.5854283,101.219491 L66.5734543,101.223981 L66.4462307,101.298819 L66.1079656,101.553266 L66.0016965,101.658038 L65.7577265,101.952898 L65.7532362,101.964872 L65.7098305,102.026238 C65.6439736,102.129514 65.5796134,102.24177 65.5182468,102.367497 C65.4748411,102.460295 65.4254484,102.580035 65.3700687,102.726716 C65.33265,102.831489 65.296728,102.955719 65.2578126,103.09791 C65.2233873,103.238604 65.1964459,103.362834 65.1784849,103.4706 C65.1365759,103.7011 65.106641,103.95405 65.0856865,104.230948 L65.0662288,104.9898 L65.1111312,105.932751 L65.1635174,106.470084 L63.4901528,114.5181 L63.4901528,114.52259 L63.4871593,114.528577 L62.9662909,116.565651 L62.7941649,116.78717 L62.5741429,117.002702 L62.5501949,117.022159 L62.4095005,117.113461 L62.4020168,117.116455 L62.3975266,117.120945 L62.3047282,117.158364 L62.3002379,117.161357 L62.2852704,117.165847 L62.2837737,117.165847 C62.2613225,117.173331 62.2418647,117.185305 62.2239037,117.198776 L62.1775046,117.231704 L61.758415,117.608885 L61.6521459,117.724134 C61.60425,117.781011 61.5713215,117.82292 61.5533605,117.851358 C61.5249223,117.888777 61.4934906,117.932182 61.4575686,117.986065 C61.4231434,118.044439 61.3962019,118.093831 61.378241,118.13574 C61.354293,118.179146 61.3318418,118.233029 61.3108873,118.295892 C61.2929263,118.354265 61.2779588,118.412639 61.2689783,118.471012 L61.2599978,118.539862 L61.2599978,118.723962 L61.2614946,118.735936 L61.2614946,118.74791 L61.2779588,118.840709 L61.2779588,118.846696 L61.2809523,118.852683 L61.2944231,118.909559 L61.30041,118.91854 L61.3019068,118.930514 L61.3333385,119.017325 L61.3917117,119.138562 L61.4156597,119.17598 C61.4440979,119.225373 61.4770263,119.273269 61.5144451,119.319668 C61.5548573,119.367564 61.592276,119.409473 61.6281979,119.445395 L61.6551394,119.469343 L62.5501949,120.114441 L62.5382209,122.985205 C62.5382209,123.033101 62.5516916,123.076506 62.5786331,123.115422 C62.6055746,123.155834 62.6399998,123.184272 62.6834055,123.200736 L62.8061388,123.250129 L63.4587211,123.446203 L63.4662048,123.446203 L63.8179407,123.513557 L63.8254244,123.513557 L63.8344049,123.515054 L64.3268351,123.564446 L64.9509792,123.56744 L64.9674434,123.564446 L65.2772703,123.543492 C65.3670752,123.536008 65.4538866,123.527028 65.534711,123.515054 L66.1753193,123.411778 L66.5090941,123.338437 L66.5240616,123.333947 L66.806947,123.262103 C66.8698105,123.245639 66.9192032,123.20822 66.9521316,123.154337 C66.9850601,123.095964 66.9925438,123.034597 66.9760796,122.971734 C66.9730861,122.961257 66.9685959,122.946289 66.9581186,122.926831 L66.9581186,122.923838 L65.0856865,119.252314 L65.2697865,117.861835 L65.6275094,115.865173 L66.4806559,112.27148 L67.8007879,107.85757 L67.7933042,107.869544 L67.8082717,107.839609 L67.8007879,107.85757 L68.3066888,107.13015 L69.1912671,105.992621 L70.0324396,105.05416 L70.8990569,104.230948 L71.5651099,103.686132 L71.5351749,104.400081 L71.5890579,105.051167 L71.7327457,105.690278 L71.7941124,105.871385 L71.8000994,105.890842 L71.9243295,106.190192 L72.0814881,106.500019 L72.3299483,106.889173 L72.5424865,107.158588 L72.5709248,107.188523 L73.9509267,111.213279 L73.9584104,111.229743 L74.7442033,113.822112 L76.321776,119.196935 L75.7440312,119.681881 C75.7335539,119.690862 75.7275669,119.702836 75.7275669,119.717803 L75.7245734,119.95878 L75.7275669,119.975244 L75.7320572,120.102467 L75.7844434,120.485635 C75.8068946,120.582924 75.8323393,120.666742 75.8592808,120.738585 L75.9191507,120.862816 C75.9416019,120.904725 75.9670467,120.94364 75.9954849,120.978065 L76.0508646,121.046916 L76.0583483,121.054399 L76.065832,121.05889 L76.077806,121.07236 L76.0912768,121.084334 C76.1242052,121.114269 76.1631207,121.142707 76.2080231,121.169649 L76.3068085,121.219042 L76.3262662,121.223532 L76.3427305,121.231016 C76.3801492,121.245983 76.4265484,121.25646 76.4819281,121.263944 C76.523837,121.269931 76.571733,121.274421 76.6241192,121.274421 L76.7633167,121.263944 L76.7962452,121.254964 L77.0476989,121.12774 L77.2602372,122.621495 C77.2677209,122.670888 77.2916689,122.708306 77.3305844,122.732254 L77.3350746,122.735248 C77.3665063,122.757699 77.4024283,122.778653 77.439847,122.799608 L77.5491096,122.850497 C77.6194568,122.883426 77.6927974,122.911864 77.7676349,122.935812 C77.8469625,122.961257 77.9217999,122.982211 77.9936439,122.997179 C78.063991,123.013643 78.1388284,123.027114 78.2181561,123.040584 C78.3693277,123.063036 78.5190025,123.076506 78.6671806,123.082493 L79.3362271,123.07501 L79.9962931,123.013643 C80.0651435,123.007656 80.1384842,122.998675 80.2133216,122.985205 L80.8644071,122.881929 C80.924277,122.871452 80.9706762,122.84002 81.0036047,122.789131 C81.0380299,122.739738 81.0500039,122.684358 81.0395266,122.624488 L81.0275527,122.581083 L80.8778778,122.245811 L80.4498078,121.460018 L79.5068564,120.102467 C79.4963791,120.093487 79.4844052,120.078519 79.4694377,120.056068 L78.985988,119.461859 L76.6046614,110.797183 L76.6046614,110.795686 L76.6001712,110.779222 C76.4774378,110.470892 76.3816459,110.176033 76.3112988,109.894644 L76.2574158,109.655164 L76.2529256,109.641694 L76.1930556,109.271997 L76.1915589,109.264513 L76.1915589,109.258526 L76.1855719,109.213624 C76.1765914,109.137289 76.1691077,109.060955 76.1646174,108.983124 L76.1556369,108.84243 L76.1646174,108.324555 L76.1691077,108.296117 C76.1735979,108.245227 76.1810817,108.168893 76.1930556,108.068611 L76.2125134,107.954858 L76.2140101,107.92642 L76.2813638,107.616593 L76.4055939,107.204987 L76.4175679,107.179543 L76.4325354,107.136137 L76.5971777,106.755963 C76.6645314,106.622752 76.7393688,106.488045 76.8216899,106.351841 L76.9474168,106.155767 L77.2617339,105.739671 L77.6942942,105.263705 L78.0385463,104.944897 C78.2645553,104.742836 78.510022,104.548259 78.7734497,104.361166 L79.87805,103.331403 C80.0786142,103.142812 80.2567273,102.970686 80.4138859,102.813528 L81.2086592,102.026238 L83.0017637,100.126865 L84.5179697,98.3562114 L86.5565409,95.594112 L88.3960445,96.7457102 L88.3975413,96.7457102 L88.4259795,96.7591809 L89.1519024,97.0465566 L90.0798864,97.3623705 L91.4224696,97.7230868 L91.4449208,97.7245836 L91.7427737,97.7904405 L91.7637282,97.793434 L92.425291,97.9161674 L92.4357682,97.9191608 L92.4462454,97.9191608 L92.4686967,97.9236511 L93.7618872,98.0823064 L93.7828417,98.0823064 L93.7918222,98.0838032 L95.017659,98.1391829 L96.1851227,98.1077511 C96.2045804,98.1077511 96.2180512,98.1077511 96.2285284,98.1062544 L97.2612847,98.0104625 L97.9048865,97.9191608 L97.913867,97.9191608 L98.5829135,97.7964275 L98.6053647,97.793434 L99.210051,97.6557331 L99.2414827,97.7485315 L99.245973,97.757512 L99.3731966,98.2125235 C99.424086,98.423565 99.4644982,98.6361033 99.4944332,98.8501383 C99.5213747,99.0402253 99.5438259,99.2542603 99.5632836,99.4967336 L99.6575788,100.810879 C99.6815267,101.057842 99.7054747,101.276367 99.7309194,101.466454 L99.8162341,102.102572 L100.281723,104.388107 L100.762179,105.973163 C100.825042,106.160257 100.89539,106.357828 100.974717,106.567373 L100.980704,107.763274 L100.983698,107.778242 L101.01962,108.276659 L101.151334,109.203146 L101.292028,109.81382 L101.45667,110.355642 L101.464154,110.369113 L101.494089,110.461912 L101.492592,110.440957 L101.500076,110.473886 L101.494089,110.461912 L101.6273,111.722174 L101.70064,115.293415 L101.480618,120.705657 L101.440206,120.734095 C101.410271,120.756546 101.366865,120.790972 101.309989,120.838868 L101.184262,120.946633 C101.170791,120.958607 101.130379,120.996026 101.061529,121.060386 L100.860964,121.271428 L100.717277,121.467502 C100.696322,121.504921 100.679858,121.539346 100.669381,121.569281 L100.661897,121.582751 L100.6604,121.590235 L100.6604,121.593229 L100.657407,121.594725 L100.657407,121.600712 L100.649923,121.618673 L100.648426,121.629151 L100.640942,121.642621 L100.633459,121.67555 C100.614001,121.754878 100.60502,121.831212 100.609511,121.904552 C100.612504,121.929997 100.616994,121.967416 100.627472,122.018305 L100.633459,122.058717 L100.65591,122.123078 L100.657407,122.136548 L100.673871,122.179954 L100.678361,122.185941 L100.693329,122.221863 L100.705303,122.242817 L100.709793,122.254791 L100.71129,122.257785 L100.726257,122.286223 L100.727754,122.28772 L100.727754,122.29221 L100.730747,122.295204 L100.744218,122.319152 L100.747212,122.326635 L100.751702,122.331126 L100.766669,122.355074 L100.841507,122.458349 L100.8445,122.462839 L100.857971,122.477807 C100.866951,122.486787 100.889403,122.510735 100.929815,122.551148 L101.09296,122.675378 L101.163308,122.71579 C101.166301,122.717287 101.169295,122.718783 101.173785,122.72028 L101.175282,122.723274 L101.184262,122.726267 L101.206713,122.738241 L101.363872,122.796614 C101.369859,122.798111 101.374349,122.799608 101.378839,122.801105 L101.459664,123.154337 L101.46116,123.155834 L101.46116,123.164814 L101.464154,123.164814 L101.464154,123.172298 L101.544978,123.423752 L101.549469,123.429739 L101.553959,123.440216 L101.555456,123.449197 L101.561443,123.458177 C101.585391,123.510563 101.616822,123.558459 101.652744,123.603362 C101.670705,123.622819 101.69166,123.645271 101.717104,123.669219 L101.724588,123.678199 L101.729078,123.681193 L101.735065,123.688676 L101.747039,123.697657 L101.759013,123.705141 L101.769491,123.714121 L101.787452,123.729089 L101.868276,123.773991 C101.902701,123.788958 101.928146,123.799436 101.946107,123.803926 L102.043396,123.832364 L102.05986,123.835358 L102.067344,123.836854 L102.071834,123.836854 L102.079318,123.839848 L102.850143,123.959588 L103.520686,124 L104.095437,123.974555 L104.625286,123.913189 L104.629777,123.910195 L104.634267,123.910195 L104.709104,123.892234 L104.719582,123.886247 L104.725569,123.886247 L104.730059,123.88475 L104.731556,123.88475 L104.743529,123.88026 L104.746523,123.877267 L104.751013,123.877267 L104.758497,123.872776 L104.764484,123.869783 L104.774961,123.865293 L104.782445,123.863796 L104.786935,123.860802 L104.791425,123.856312 L104.80789,123.848828 L104.836328,123.829371 L104.861773,123.806919 C104.864766,123.803926 104.866263,123.800932 104.864766,123.800932 L104.866263,123.800932 L104.869256,123.799436 L104.869256,123.796442 L104.87225,123.794945 L104.888714,123.784468 L104.917152,123.770998 L104.99199,123.745553 L104.994983,123.742559 L104.999473,123.742559 L105.024918,123.730585 L105.041382,123.726095 L105.198541,123.649761 C105.24494,123.622819 105.283856,123.597375 105.316784,123.570433 L105.342229,123.547982 L105.349713,123.543492 L105.354203,123.541995 L105.400602,123.498589 L105.412576,123.485119 L105.427543,123.473145 C105.463465,123.434229 105.494897,123.393817 105.521839,123.354901 L105.571231,123.27258 L105.575722,123.262103 L105.581709,123.256116 L105.616134,123.164814 L105.620624,123.155834 C105.622121,123.15284 105.623617,123.151344 105.623617,123.14835 L105.623617,123.14386 L105.635591,123.109435 L105.635591,123.101951 L105.637088,123.098958 L105.637088,123.097461 L105.652056,123.030107 L105.661036,122.917851 C105.66403,122.892406 105.66403,122.866962 105.661036,122.84451 L105.661036,122.816072 L105.659539,122.808588 L105.659539,122.789131 L105.632598,122.636462 C105.616134,122.561625 105.587696,122.479304 105.547283,122.388002 C105.529322,122.340106 105.511361,122.302687 105.496394,122.274249 L105.473943,122.230844 L105.472446,122.224857 L105.467956,122.21887 L105.467956,122.217373 L105.316784,121.961429 C105.226979,121.822231 105.132684,121.695008 105.036892,121.581255 C105.00546,121.542339 104.953074,121.482469 104.88123,121.403142 L104.840818,121.361233 L104.828844,121.352252 L104.819864,121.340278 L104.713595,121.235506 C104.616306,121.147198 104.522011,121.06787 104.432206,120.99902 L104.441186,119.934832 L104.391794,115.238035 L104.242119,111.753605 L104.249603,111.734148 L104.249603,111.731154 L104.252596,111.729657 L104.252596,111.725167 L104.263073,111.693735 L104.363355,111.35547 L104.469625,110.759765 L104.469625,110.747791 L104.490579,110.530762 L104.49956,109.782388 L104.399277,108.757115 L104.14034,107.496853 L104.14034,107.501343 L104.138843,107.489369 L104.14034,107.496853 L104.038561,106.633229 L103.785611,104.0229 L103.670361,101.69845 C103.664374,101.439513 103.66138,101.244936 103.66138,101.116215 C103.659884,100.923135 103.659884,100.731551 103.66138,100.53847 L103.686825,99.7826125 L103.755676,99.1030888 C103.770643,99.0058001 103.787107,98.9130017 103.805068,98.8246936 L103.866435,98.5687496 L103.873919,98.5522854 L103.959233,98.3083154 L104.168778,98.0957771 L104.483095,97.8622844 L104.62379,97.78146 L104.62828,97.7769698 L104.634267,97.7739763 L104.914159,97.6392689 L105.334745,97.4925876 L105.436524,97.4671429 L105.451491,97.4641494 L105.566741,97.4357111 L105.945418,97.4461884 L105.945418,97.4476851 L107.115876,104.180059 C107.166765,104.453964 107.220648,104.733856 107.279021,105.019735 L108.016918,108.35898 C108.078285,108.59846 108.154619,108.875358 108.245921,109.186682 L108.778763,110.7433 C108.771279,110.749287 108.766789,110.755274 108.762299,110.764255 C108.753318,110.777726 108.750325,110.791196 108.751821,110.80766 L108.751821,110.812151 L109.331063,115.74693 L109.787571,120.973575 L109.781584,120.993033 L109.70974,121.096308 L109.702257,121.103792 L109.69627,121.112773 L109.688786,121.120256 L109.669328,121.144204 L109.639393,121.172642 L109.6364,121.177133 L109.631909,121.181623 L109.622929,121.189107 L109.618439,121.195094 L109.612452,121.198087 L109.46128,121.320821 C109.425358,121.347762 109.398417,121.368716 109.381952,121.385181 L109.296638,121.455528 L109.289154,121.463012 L109.235271,121.528869 C109.215813,121.554313 109.199349,121.578261 109.187375,121.600712 L109.155943,121.663576 L109.154447,121.67106 L109.149956,121.68004 L109.123015,121.760865 C109.115531,121.79529 109.111041,121.828218 109.111041,121.858153 L109.114035,121.92401 L109.117028,121.935984 L109.117028,121.943468 L109.118525,121.944965 L109.118525,121.949455 L109.121518,121.964422 L109.123015,121.968913 L109.123015,121.973403 L109.126009,121.977893 L109.126009,121.982383 L109.127505,121.985377 L109.130499,121.997351 L109.154447,122.055724 C109.166421,122.084162 109.184382,122.1126 109.20833,122.141039 C109.232278,122.16798 109.254729,122.190431 109.27718,122.208392 C109.299631,122.224857 109.325076,122.241321 109.353514,122.257785 C109.377462,122.272752 109.402907,122.286223 109.428352,122.295204 L109.504686,122.320648 C109.533124,122.331126 109.558569,122.337113 109.579523,122.3431 L109.618439,122.349087 L109.634903,122.355074 L109.708244,122.364054 L109.712734,122.364054 L109.712734,122.365551 L109.748656,122.54067 L109.753146,122.588566 L109.753146,122.60054 L109.754643,122.605031 L109.754643,122.612514 L109.759133,122.664901 L109.762127,122.675378 L109.762127,122.690345 L109.771107,122.747222 C109.777094,122.787634 109.786075,122.825053 109.795055,122.857981 C109.807029,122.905877 109.8205,122.944792 109.835467,122.974727 L109.859415,123.01963 L109.868396,123.033101 L109.871389,123.037591 L109.872886,123.040584 L109.88037,123.049565 L109.88486,123.058545 L109.88935,123.064532 L109.88935,123.066029 L109.892344,123.066029 L109.899827,123.07501 L109.901324,123.078003 L109.901324,123.080997 L109.916292,123.094467 C109.946227,123.127396 109.979155,123.155834 110.018071,123.176788 C110.042018,123.193253 110.079437,123.21271 110.125836,123.233665 L110.32191,123.295032 L110.329394,123.295032 L110.738006,123.380346 C110.803863,123.395314 110.871217,123.407288 110.941564,123.416268 L111.148115,123.440216 C111.242411,123.446203 111.312758,123.449197 111.35766,123.449197 L111.519309,123.444706 L111.83662,123.401301 L111.887509,123.38783 L111.902477,123.384836 L111.96534,123.363882 L111.980308,123.362385 L112.119505,123.307006 L112.131479,123.301019 L112.146447,123.295032 L112.156924,123.289045 L112.164408,123.286051 L112.167401,123.283058 L112.168898,123.283058 L112.201826,123.266593 L112.20482,123.265097 L112.347011,123.182775 C112.412868,123.184272 112.474234,123.184272 112.529614,123.179782 L112.803519,123.142363 L112.857402,123.130389 L112.980135,123.085487 C113.008574,123.069023 113.029528,123.055552 113.044496,123.045075 C113.071437,123.021127 113.090895,123.001669 113.101372,122.988198 L113.113346,122.967244 L113.117836,122.962753 L113.117836,122.95976 L113.119333,122.956766 L113.122326,122.952276 L113.126817,122.946289 L113.126817,122.943296 L113.12981,122.943296 L113.12981,122.940302 L113.131307,122.934315 L113.146274,122.902883 L113.159745,122.834033 L113.162739,122.763686 L113.155255,122.699326 L113.150765,122.685855 L113.147771,122.669391 L113.147771,122.664901 L113.146274,122.661907 L113.146274,122.654423 L113.143281,122.649933 L113.143281,122.645443 L113.141784,122.640953 L112.951697,121.9285 L112.857402,121.662079 L112.845428,121.635138 L112.837944,121.623164 L112.81699,121.572274 C112.779571,121.494443 112.740656,121.430083 112.698747,121.377697 L112.673302,121.341775 C112.670308,121.340278 112.667315,121.337285 112.664322,121.329801 L112.652348,121.320821 L112.652348,121.317827 L112.649354,121.31633 L112.649354,121.313337 L112.640374,121.304356 L112.63738,121.304356 L112.635883,121.299866 L112.477228,121.157675 L112.465254,121.150191 L112.245232,120.975072 L112.240742,120.970581 L112.237748,120.966091 L112.218291,120.949627 C112.171891,120.906221 112.129982,120.858325 112.091067,120.807436 C112.052151,120.758043 112.017726,120.70865 111.989288,120.660755 L111.66599,115.865173 L111.216966,111.71469 L111.275339,111.1115 L111.336706,109.034014 L111.335209,109.023536 L111.213972,107.49386 L111.213972,107.501343 L111.209482,107.456441 L111.210979,107.465422 L111.055317,103.502032 L111.457942,97.6467527 L111.824646,96.7936061 L112.150937,96.216011 L112.358985,95.9370171 L112.505666,95.7856958 L112.511653,95.7809062 L112.616426,95.698136 C112.658335,95.6698475 112.69725,95.6467976 112.730178,95.629585 L112.731675,95.629585 C112.751133,95.6201555 112.767597,95.6083311 112.782565,95.594112 C112.94122,95.4207886 113.099875,95.2283068 113.260027,95.0169659 C113.397728,94.8279266 113.538423,94.6236204 113.67762,94.4046462 C113.812327,94.1933053 113.938054,93.9812161 114.056297,93.7685281 C114.183521,93.5351851 114.298771,93.3175579 114.402046,93.1157962 L114.623565,92.6570428 L114.631049,92.6474637 L114.66248,92.5837022 L114.674454,92.5648432 L114.725344,92.4606695 C114.776233,92.3566455 114.82862,92.2439403 114.882502,92.122554 L115.023197,91.779649 L115.27016,91.0797695 L115.371939,90.7250401 C115.392894,90.6460118 115.422829,90.526272 115.461744,90.3655212 L115.574,89.8239977 L115.747623,88.4499827 L115.780551,86.7023794 C115.770074,86.4185959 115.756603,86.1741769 115.740139,85.9692721 C115.725172,85.7248531 115.702721,85.4804341 115.675779,85.2361648 C115.654825,85.0288651 115.626386,84.7953724 115.588968,84.5362853 L115.726669,84.1058205 L115.728165,84.0939961 L115.732656,84.0821718 L115.856886,83.6469174 L115.861376,83.6350931 L115.936213,83.339635 L116.228079,81.8828499 L116.350813,80.3859519 L116.331355,79.5488206 C116.322374,79.4117184 116.3104,79.2704254 116.295433,79.1253905 L116.269988,78.9127025 L116.070921,77.8839874 L116.070921,77.8980569 L116.069424,77.8697683 L116.070921,77.8839874 L116.115823,77.3140257 C116.130791,77.1154072 116.142765,76.9199319 116.151745,76.7275997 C116.157732,76.5951375 116.163719,76.3996621 116.171203,76.141024 C116.174196,75.8793924 116.174196,75.6837674 116.1727,75.5545981 C116.168209,75.1289228 116.151745,74.7372238 116.123307,74.3793513 C116.091875,73.9693919 116.046973,73.5808361 115.991593,73.2133844 C115.927233,72.8035747 115.852395,72.4196587 115.767081,72.0617862 C115.714695,71.8520918 115.663805,71.6629028 115.614412,71.4942193 C115.550052,71.2782385 115.490182,71.0914443 115.433306,70.933687 C115.361462,70.7304286 115.292612,70.547526 115.225258,70.3851288 C115.144433,70.1896534 115.065106,70.0106423 114.985778,69.8482452 L114.716363,69.3279754 C114.617578,69.1515088 114.517296,68.9828253 114.415517,68.8220745 L114.40953,68.8148901 L114.366124,68.7794172 L114.23441,68.6471046 L114.182024,68.5831935 C114.173044,68.5736143 114.162567,68.5595449 114.150593,68.5405362 L114.063781,68.4056791 L114.059291,68.3938548 L114.051807,68.3820305 L113.997924,68.2615423 L113.950028,68.0817828 L113.947035,68.0745984 L113.947035,68.0677134 L113.941048,68.0274508 L113.941048,68.0156265 L113.933564,67.9469258 L113.933564,67.8288324 L113.938054,67.7884201 L113.938054,67.767316 L113.941048,67.7601316 L113.945538,67.7198691 L113.945538,67.7080448 L113.953022,67.6679319 L113.953022,67.6608972 L113.954519,67.6537128 L113.962002,67.6134503 L113.966493,67.601626 L113.970983,67.5755825 L114.071265,67.2754845 L114.063781,67.2801244 L114.075755,67.2683001 L114.071265,67.2754845 L114.223933,67.204389 L114.586146,66.9869114 L114.59363,66.979727 L114.622068,66.9584732 L114.629552,66.9514385 L114.756776,66.8426249 L114.786711,66.8093971 L114.797188,66.8023624 L114.888489,66.6889088 L114.948359,66.5943144 L114.985778,66.5115442 L115.0217,66.3814767 L115.029184,66.3365743 L115.029184,66.3199604 L115.343501,66.1331662 L116.123307,65.5846079 L116.518448,65.243948 C116.644175,65.1257049 116.754935,65.0161429 116.84923,64.9152621 L117.15756,64.5653224 C117.250358,64.4517192 117.343157,64.325693 117.437452,64.1869444 L117.528753,64.0544822 L117.53474,64.0402631 L117.685912,63.7897074 L117.899947,63.3686721 C117.967301,63.2158541 118.025674,63.0691728 118.075067,62.9289274 C118.12895,62.7665302 118.172355,62.6159574 118.203787,62.4772088 L118.293592,62.0112711 C118.31754,61.8425875 118.332507,61.6866263 118.339991,61.5430882 C118.344481,61.465856 118.345978,61.3869773 118.345978,61.306602 L118.344481,61.0274584 L118.341488,61.013389 L118.31305,60.604178 C118.31305,60.5968439 118.311553,60.5890608 118.311553,60.5805294 C118.401358,60.4570476 118.498646,60.329375 118.601922,60.1975115 C118.726152,60.0399039 118.866846,59.8712203 119.025502,59.6914609 C119.202118,59.4974823 119.354786,59.3389766 119.483507,59.2160936 L120.0388,58.7218673 L120.056761,58.710043 L120.061252,58.7052534 L120.062748,58.7052534 L120.070232,58.6982187 L120.502792,58.3717779 C120.685396,58.2252462 120.854528,58.0809597 121.008693,57.9390679 C121.162858,57.8003194 121.32301,57.6451066 121.486156,57.4731302 C121.635831,57.3186658 121.782512,57.1532751 121.929193,56.9766588 L122.264465,56.5508339 L122.268955,56.5415541 L122.279433,56.5319749 L122.288413,56.5131158 L122.319845,56.4704585 L122.324335,56.4611787 L122.336309,56.4444151 C122.408153,56.3341047 122.466526,56.2378638 122.511429,56.1559917 C122.560821,56.0645404 122.610214,55.9644079 122.659607,55.855744 C122.749412,55.6554791 122.824249,55.4433898 122.882622,55.219626 C122.903577,55.1248818 122.926028,55.0145714 122.948479,54.8885452 L122.948479,54.878966 L122.984401,54.5526749 L122.988891,54.2145595 C122.987395,54.1198153 122.978414,54.0080082 122.964943,53.8786892" id="Fill-24" fill="#0A0B09" transform="translate(92.124445, 86.000000) scale(-1, 1) translate(-92.124445, -86.000000) "></path>
            </g>
        </g>
    </g>
</svg>