<?xml version="1.0" encoding="UTF-8"?>
<svg width="176px" height="175px" viewBox="0 0 176 175" version="1.1" xmlns="http://www.w3.org/2000/svg" xmlns:xlink="http://www.w3.org/1999/xlink">
    <!-- Generator: Sketch 64 (93537) - https://sketch.com -->
    <title>a_44</title>
    <desc>Created with Sketch.</desc>
    <g id="Advertência" stroke="none" stroke-width="1" fill="none" fill-rule="evenodd">
        <g id="A-44" transform="translate(-12.000000, -12.000000)">
            <g id="a_44" transform="translate(9.750000, 9.000000)">
                <g id="advertencia_placa_base">
                    <rect id="Rectangle" fill="#FFCE00" fill-rule="evenodd" transform="translate(90.254834, 90.254834) rotate(45.000000) translate(-90.254834, -90.254834) " x="26.254834" y="26.254834" width="128" height="128" rx="8"></rect>
                    <rect id="Rectangle" stroke="#000000" stroke-width="3" transform="translate(90.254834, 90.254834) rotate(45.000000) translate(-90.254834, -90.254834) " x="33.254834" y="33.254834" width="114" height="114" rx="4"></rect>
                </g>
                <g id="809188" transform="translate(105.250000, 72.000000)" fill="#000000" fill-rule="nonzero">
                    <path d="M29.0496681,5.83264681 C25.8409532,5.83264681 23.2397617,8.4338383 23.2397617,11.6425532 L26.1446809,11.6425532 C26.1446809,10.0381957 27.4453106,8.73756596 29.0496681,8.73756596 C30.6540255,8.73756596 31.9546553,10.0381277 31.9546553,11.6425532 C31.9546553,13.2469787 30.6540255,14.5475404 29.0496681,14.5475404 L8.71489362,14.5475404 L8.71489362,17.4525277 L29.0496681,17.4525277 C32.258383,17.4525277 34.8595745,14.8512681 34.8595745,11.6425532 C34.8595745,8.4338383 32.258383,5.83264681 29.0496681,5.83264681 Z" id="Path"></path>
                    <path d="M23.1338213,20.3574468 L5.80990638,20.3574468 L5.80990638,23.262434 L23.1338213,23.262434 C24.7381787,23.262434 26.0388085,24.5630638 26.0388085,26.1674213 L26.0388085,26.2732936 C26.0388085,27.819166 24.785634,29.0724085 23.2396936,29.0724085 L23.2396936,31.9773957 C26.3899915,31.9773957 28.9437277,29.4235915 28.9437277,26.2733617 L28.9437277,26.1674894 C28.9437277,22.9586383 26.3426043,20.3574468 23.1338213,20.3574468 Z" id="Path"></path>
                    <rect id="Rectangle" x="0" y="14.5475404" width="5.80990638" height="2.90498723"></rect>
                    <path d="M14.5073702,0.0226723404 C11.3474723,0.0226723404 8.7858383,2.58430638 8.7858383,5.74420426 L8.7858383,6.11131915 L11.6908255,6.11131915 L11.6908255,5.74420426 C11.6908255,4.18866383 12.9518298,2.92765957 14.5073702,2.92765957 C16.0629106,2.92765957 17.3239149,4.18866383 17.3239149,5.74420426 L17.3239149,5.83264681 C17.3239149,7.43700426 16.0232851,8.73763404 14.4189277,8.73763404 L2.90498723,8.73763404 L2.90498723,11.6425532 L14.4189957,11.6425532 C17.6277106,11.6425532 20.2289021,9.0413617 20.2289021,5.83264681 L20.2289021,5.74420426 C20.2289021,2.58430638 17.6672681,0.0226723404 14.5073702,0.0226723404 Z" id="Path"></path>
                </g>
                <g id="66375" transform="translate(52.795455, 53.000000)" fill="#000000" fill-rule="nonzero">
                    <path d="M59.6949574,66.7353489 C55.5492,61.830017 48.1205617,58.0898723 39.1423915,56.5631277 C38.2643234,51.3053532 36.6965617,48.8488894 36.6555447,48.7805277 C37.3391617,48.4599872 38.1640596,48.3506085 39.1059319,48.5587319 C40.2544085,48.8169872 41.0382894,49.426166 41.513783,50.1978936 C41.6520255,50.4227277 42.0044681,50.3467702 42.0454851,50.0854766 C42.1047319,49.7026511 42.0865021,49.2848851 41.9558553,48.8215447 C41.6277191,47.6685106 40.7299021,46.7099277 39.5601574,46.4577489 C38.7960255,46.2952 38.0364511,46.4212894 37.3953702,46.7615787 C37.9893574,46.2481064 38.729183,45.8288213 39.6300383,45.5356255 C41.5745489,44.9127745 43.2699191,45.2166043 44.5885404,46.0582128 C44.8118553,46.1994936 45.0853021,45.9944085 45.0139021,45.7391915 C44.7936255,44.9477149 44.3576298,44.1714298 43.5494426,43.4589489 C42.1882851,42.2618596 40.2939064,41.7423106 38.5727106,42.3119915 C38.0182213,42.4958085 37.5138638,42.7692553 37.0748298,43.1080255 C37.1067319,43.0670085 37.1416723,43.0244723 37.1735745,42.9849745 C38.4420638,41.4946894 39.9657702,40.8505702 41.4682085,40.8141106 C41.7948255,40.8065149 41.9406638,40.3826723 41.6900043,40.1715106 C41.156783,39.7279191 40.5005106,39.3785149 39.6482681,39.196217 C37.7311021,38.787566 35.7136723,39.3618043 34.4953149,40.8961447 C34.0578,41.4445574 33.7539702,42.0628511 33.5777489,42.7008936 C33.0612383,42.2831277 32.456617,41.9595489 31.7790766,41.7681362 C29.8953319,41.2333957 27.9219574,41.9443574 26.6033362,43.3921064 C26.0336553,44.0164766 25.704,44.6681915 25.5292979,45.3199064 C25.4381489,45.6556383 25.8240128,45.927566 26.1141702,45.7361532 C27.3492383,44.9097362 28.9458638,44.5572936 30.8250511,45.0221532 C30.8767021,45.0373447 30.926834,45.051017 30.9784851,45.0631702 C30.4239957,45.0419021 29.855834,45.1148213 29.2952681,45.2895234 C27.5649574,45.8288213 26.3283702,47.3540468 25.9197191,49.120817 C25.6857702,50.1386468 25.7708426,51.0030426 26.0351745,51.7565404 C26.1308809,52.0299872 26.5076298,52.0360638 26.6200468,51.7686936 C27.214034,50.3437319 28.4035277,49.1390468 30.3176553,48.5237915 C31.2185106,48.233634 32.0646766,48.1440043 32.8455191,48.2138851 C32.1239234,48.3095915 31.4342298,48.6514 30.9101234,49.2301957 C30.1049745,50.1173787 29.9363489,51.4162511 30.3419617,52.5464979 C30.5045106,53.0022426 30.7384596,53.3546851 31.0119064,53.6326894 C31.1942043,53.8195447 31.5223404,53.6767447 31.5025915,53.4169702 C31.4342298,52.5100383 31.7183106,51.568166 32.5006723,50.6870596 C33.1037745,50.0110383 33.7904298,49.5765617 34.4862,49.4793362 L34.4862,49.4793362 C34.4846809,49.4793362 35.587583,52.1879787 35.741017,56.0967489 C33.904366,55.9083745 32.017583,55.8035532 30.0913021,55.8035532 C25.3743447,55.8035532 20.8882979,56.3914638 16.8291319,57.4563872 C17.6707404,39.1157021 28.958017,26.9655489 28.9716894,26.904783 L28.9716894,26.9032638 C30.3617106,27.8223489 31.5360128,29.2306 32.2955872,31.2070128 C33.2845532,33.7743745 33.1144085,36.1001915 32.2196298,38.0203957 C31.9628936,38.5703277 32.5644766,39.1521617 33.1174468,38.8954255 C33.9438638,38.5126 34.741417,37.9338043 35.4736468,37.0754851 C37.2859915,34.9471574 37.9893574,31.9665872 36.9608936,29.3688426 C36.2894298,27.6734723 35.0604383,26.3624468 33.5701532,25.5557787 C35.332366,26.0449447 37.1082511,26.9366851 38.8385617,28.3084766 C42.5118638,31.2267617 44.1176043,34.8423362 44.2436936,38.4351234 C44.268,39.1096255 45.0959362,39.4119362 45.5288936,38.8923872 C46.7244638,37.4643872 47.6253191,35.6444468 47.9488979,33.2274809 C48.510983,29.0331106 47.0677915,24.6868255 43.7332596,22.0814851 C42.6546638,21.2368383 41.4742851,20.6124681 40.2437745,20.1992596 C40.3668255,20.2114128 40.4883574,20.2250851 40.6129277,20.2372383 C45.0974553,20.7613447 48.296783,22.8425787 50.3142128,25.6636383 C50.7851489,26.3214298 51.8531106,26.0403872 51.9290681,25.2367574 C52.0855404,23.6689957 51.897166,21.9766638 51.1679745,20.1415319 C49.4817191,15.8939915 45.756766,12.7220085 41.2008383,12.3361447 C39.566234,12.1979021 37.9756851,12.4045064 36.5051489,12.8921532 C36.6494681,11.3486979 36.4884383,9.75814894 35.9856,8.19950213 C34.5834255,3.84865957 30.6533872,0.936451064 26.1354383,0.248276596 C24.1316809,-0.0555531915 22.4013702,0.163204255 20.879183,0.697944681 C20.1591064,0.950123404 20.1256851,1.99681702 20.8320894,2.28241702 C24.0861064,3.5949617 26.8828596,6.25043404 28.4263149,10.5526638 C28.4688511,10.6696383 28.5083489,10.7866128 28.5463277,10.9020681 C27.8657489,9.79764681 26.9907191,8.78741277 25.9242766,7.92909362 C22.6322809,5.26906383 18.0717957,4.84522128 14.1144128,6.33854468 C11.7627702,7.22572766 10.1707021,8.56865532 9.04197447,10.1121106 C8.67737872,10.6103915 9.10577872,11.2833745 9.70888085,11.1572851 C13.2849574,10.411383 17.2317064,11.1329787 20.9627362,14.1013957 C22.6915277,15.4747064 23.9630553,17.0014511 24.8380851,18.6102217 C23.7169532,17.337183 22.1598255,16.4378468 20.3565957,16.1689574 C17.5932638,15.7542298 14.8481617,17.1108298 13.1846936,19.3606894 C12.5177872,20.2600255 12.138,21.1608809 11.9496255,22.0465447 C11.822017,22.6481277 12.5314596,23.1069106 13.0175872,22.7286426 C14.6856128,21.4312894 16.9050894,20.7461532 19.6228468,21.1289787 C21.8544766,21.4434426 23.5665574,22.3594894 24.7940298,23.6219021 C24.5752723,23.8087574 10.9576213,33.9703447 2.03565957,65.0825149 C1.49180426,65.5990255 0.98592766,66.1368043 0.521068085,66.6867362 C-0.393459574,67.7698894 0.379787234,69.4379411 1.79411489,69.4379411 L58.4067191,69.4379411 C59.7997787,69.4455106 60.5958128,67.8017915 59.6949574,66.7353489 Z" id="Path"></path>
                </g>
            </g>
        </g>
    </g>
</svg>