<?xml version="1.0" encoding="UTF-8"?>
<svg width="176px" height="175px" viewBox="0 0 176 175" version="1.1" xmlns="http://www.w3.org/2000/svg" xmlns:xlink="http://www.w3.org/1999/xlink">
    <title>a-4a</title>
    <desc>Created with Sketch.</desc>
    <g id="Advertência" stroke="none" stroke-width="1" fill="none" fill-rule="evenodd">
        <g id="A-4a" transform="translate(-12.000000, -12.000000)">
            <g id="a-4a" transform="translate(9.750000, 9.000000)">
                <g id="advertencia_placa_base">
                    <rect id="Rectangle" fill="#FFCE00" fill-rule="evenodd" transform="translate(90.254834, 90.254834) rotate(45.000000) translate(-90.254834, -90.254834) " x="26.254834" y="26.254834" width="128" height="128" rx="8"></rect>
                    <rect id="Rectangle" stroke="#000000" stroke-width="3" transform="translate(90.254834, 90.254834) rotate(45.000000) translate(-90.254834, -90.254834) " x="33.254834" y="33.254834" width="114" height="114" rx="4"></rect>
                </g>
                <path d="M64.1634974,52.0023973 C65.090861,51.4023385 66.3290815,51.6676714 66.9291403,52.595035 L66.9291403,52.595035 L80.6674849,73.8270221 C81.0155025,74.3648674 81.0848126,75.0368765 80.8538988,75.6344321 C80.4557526,76.6647492 79.2977543,77.177225 78.2674371,76.7790788 L78.2674371,76.7790788 L71.2494174,74.0662996 L71.25,77.562443 C71.25,81.7696619 72.9213112,85.8045641 75.8962642,88.7795171 C78.775251,91.6585038 82.646906,93.3165982 86.7067557,93.4205762 L87.1133382,93.4257812 L88.4989179,93.4257812 C95.2898006,93.4257812 101.802546,96.1234489 106.604426,100.925328 C111.297171,105.618074 113.980264,111.944803 114.099799,118.568269 L114.103972,119.030836 L114.103972,129.583984 C114.103972,132.897693 111.417681,135.583984 108.103972,135.583984 C104.865575,135.583984 102.226401,133.018409 102.108111,129.808923 L102.103972,129.583984 L102.103972,119.030836 C102.103972,115.422551 100.670587,111.962052 98.1191442,109.410609 C95.6556823,106.947148 92.3447769,105.525965 88.8716304,105.430881 L88.4989179,105.425781 L87.1133382,105.425781 C79.7235214,105.425781 72.6363724,102.490188 67.4109828,97.2647984 C62.2991887,92.1530043 59.3787166,85.2595169 59.2541554,78.0439425 L59.25,77.562443 L59.2494174,74.0672996 L52.2325629,76.7790788 C51.6893305,76.9890005 51.0845664,76.9508032 50.5750076,76.6806526 L50.4251529,76.5926649 C49.4977893,75.9926062 49.2324563,74.7543857 49.8325151,73.8270221 L49.8325151,73.8270221 L63.5708597,52.595035 C63.7243323,52.3578501 63.9263125,52.1558699 64.1634974,52.0023973 Z" id="Combined-Shape" fill="#000000" fill-rule="nonzero"></path>
            </g>
        </g>
    </g>
</svg>